<?xml version="1.0"?>
<svg xmlns="http://www.w3.org/2000/svg" xmlns:xlink="http://www.w3.org/1999/xlink" xmlns:svgjs="http://svgjs.com/svgjs" version="1.1" width="512" height="512" x="0" y="0" viewBox="0 0 512.665 512.665" style="enable-background:new 0 0 512 512" xml:space="preserve" class=""><g><g xmlns="http://www.w3.org/2000/svg"><path d="m160.533 387.103c-2.741-3.105-7.48-3.401-10.587-.659-3.104 2.741-3.4 7.48-.659 10.586l24.222 27.439v78.815c0 4.142 3.357 7.5 7.5 7.5s7.5-3.358 7.5-7.5v-81.652c0-1.828-.668-3.593-1.877-4.963z" fill="#ffffff" data-original="#000000" style=""/><path d="m107.591 327.128c-20.914-23.692-25.559-57.395-11.834-85.86l10.133-21.016c1.799-3.731.232-8.214-3.499-10.013-3.729-1.799-8.214-.233-10.013 3.499l-10.133 21.016c-16.353 33.917-10.818 74.073 14.1 102.302l31.338 35.502c1.482 1.679 3.549 2.537 5.626 2.537 1.764 0 3.534-.619 4.96-1.877 3.105-2.741 3.401-7.48.66-10.586z" fill="#ffffff" data-original="#000000" style=""/><path d="m358.402 120.198c-9.65 0-18.416 3.832-24.877 10.044-5.96-11.605-18.052-19.565-31.971-19.565-9.849 0-18.775 3.994-25.27 10.436-6.085-11.206-17.956-18.832-31.58-18.832-9.811 0-18.713 3.957-25.203 10.355-6.071-11.265-17.978-18.94-31.647-18.94-19.809 0-35.924 16.116-35.924 35.925v31.437c-17.187-.707-34.142 7.312-44.384 22.48-2.317 3.433-1.414 8.095 2.019 10.413 3.433 2.316 8.094 1.414 10.413-2.019 10.403-15.408 30.626-20.384 47.032-11.575l90.009 48.32c4.563 2.45 7.46 7.189 7.559 12.369.104 5.405-2.79 10.354-7.553 12.914l-11.807 6.348c-16.77 9.015-36.952 9.325-53.99.831l-27.287-13.604c-3.709-1.849-8.21-.34-10.059 3.366-1.849 3.707-.342 8.21 3.365 10.058l27.287 13.604c10.349 5.16 21.617 7.731 32.882 7.731 12.021 0 24.035-2.931 34.904-8.773l.9-.484 14.959 18.008c6.837 8.229 10.602 18.653 10.602 29.353v43.189c0 4.142 3.357 7.5 7.5 7.5s7.5-3.358 7.5-7.5v-43.189c0-14.193-4.995-28.022-14.063-38.938l-13.119-15.793c8.253-5.531 13.17-14.823 12.976-24.905-.081-4.22-1.083-8.291-2.833-11.987 6.452 6.179 15.192 9.985 24.811 9.985 9.979 0 19.008-4.1 25.523-10.692 6.162 10.951 17.891 18.369 31.326 18.369 5.719 0 11.125-1.35 15.93-3.737v17.882c0 4.142 3.357 7.5 7.5 7.5s7.5-3.358 7.5-7.5v-31.826c3.168-5.351 4.995-11.587 4.995-18.244v-54.387c0-19.811-16.117-35.927-35.925-35.927zm-191.472 43.77v-34.347c0-11.538 9.387-20.925 20.924-20.925 11.538 0 20.925 9.387 20.925 20.925v56.133l-34.673-18.614c-2.343-1.257-4.743-2.306-7.176-3.172zm56.849 29.839v-55.6c0-11.538 9.387-20.925 20.925-20.925s20.925 9.387 20.925 20.925v64.626c0 4.146-1.241 8.163-3.497 11.563zm77.774 29.951c-11.538 0-20.925-9.387-20.925-20.925v-56.231c0-11.538 9.387-20.924 20.925-20.924 11.537 0 20.924 9.387 20.924 20.924v56.231c0 11.538-9.387 20.925-20.924 20.925zm56.849 7.677c-11.538 0-20.925-9.387-20.925-20.925v-54.387c0-11.538 9.387-20.924 20.925-20.924s20.925 9.387 20.925 20.924v54.387c0 11.538-9.387 20.925-20.925 20.925z" fill="#ffffff" data-original="#000000" style=""/><path d="m381.831 285.042c-4.143 0-7.5 3.358-7.5 7.5v67.971c0 11.252-3.005 22.332-8.691 32.042l-11.367 19.416c-1.66 2.834-2.537 6.068-2.537 9.354v81.959c0 4.142 3.357 7.5 7.5 7.5s7.5-3.358 7.5-7.5v-81.959c0-.623.166-1.236.481-1.774l11.367-19.416c7.031-12.007 10.747-25.708 10.747-39.621v-67.971c0-4.143-3.357-7.501-7.5-7.501z" fill="#ffffff" data-original="#000000" style=""/><path d="m340.379 73.797c1.256.808 2.661 1.194 4.052 1.194 2.465 0 4.881-1.215 6.313-3.442l37.394-58.108c2.242-3.483 1.235-8.124-2.248-10.366-3.482-2.241-8.124-1.236-10.365 2.249l-37.394 58.108c-2.242 3.483-1.235 8.123 2.248 10.365z" fill="#ffffff" data-original="#000000" style=""/><path d="m417.395 124.078c1.373 1.077 3.004 1.6 4.624 1.6 2.225 0 4.427-.986 5.906-2.872l83.14-105.989c2.557-3.259 1.986-7.974-1.272-10.53s-7.974-1.987-10.53 1.272l-83.14 105.989c-2.557 3.26-1.987 7.974 1.272 10.53z" fill="#ffffff" data-original="#000000" style=""/><path d="m501.518 198.949-33.361 18.552c-3.619 2.013-4.922 6.58-2.909 10.2 1.371 2.466 3.927 3.856 6.562 3.856 1.233 0 2.484-.305 3.639-.947l33.361-18.552c3.619-2.013 4.922-6.58 2.909-10.2-2.014-3.62-6.581-4.923-10.201-2.909z" fill="#ffffff" data-original="#000000" style=""/><path d="m508.024 337.391-32.347-19.52c-3.544-2.139-8.156-1.001-10.297 2.546-2.14 3.546-1 8.156 2.547 10.296l32.347 19.52c1.212.731 2.548 1.08 3.868 1.08 2.541 0 5.02-1.292 6.429-3.626 2.139-3.546 1-8.156-2.547-10.296z" fill="#ffffff" data-original="#000000" style=""/><path d="m418.388 386.903c-2.689-3.148-7.423-3.521-10.574-.83-3.149 2.691-3.521 7.425-.83 10.574l12.023 14.071c1.483 1.736 3.588 2.628 5.706 2.628 1.723 0 3.455-.591 4.868-1.798 3.149-2.691 3.521-7.425.83-10.574z" fill="#ffffff" data-original="#000000" style=""/><path d="m451.809 426.018c-2.689-3.148-7.423-3.521-10.574-.83-3.149 2.691-3.521 7.425-.83 10.574l41.868 49.001c1.483 1.736 3.588 2.628 5.706 2.628 1.723 0 3.455-.591 4.868-1.798 3.149-2.691 3.521-7.425.83-10.574z" fill="#ffffff" data-original="#000000" style=""/><path d="m282.636 53.75c.785.261 1.583.385 2.367.385 3.143 0 6.07-1.991 7.116-5.136l8.279-24.906c1.307-3.931-.82-8.176-4.751-9.483-3.933-1.306-8.177.821-9.483 4.751l-8.279 24.906c-1.306 3.931.82 8.176 4.751 9.483z" fill="#ffffff" data-original="#000000" style=""/><path d="m161.92 71.548c1.434 2.228 3.848 3.442 6.313 3.442 1.39 0 2.796-.386 4.052-1.194 3.483-2.242 4.49-6.882 2.248-10.366l-37.393-58.107c-2.241-3.483-6.882-4.489-10.365-2.249-3.483 2.242-4.49 6.882-2.248 10.366z" fill="#ffffff" data-original="#000000" style=""/><path d="m86.773 122.847c1.48 1.861 3.666 2.831 5.873 2.831 1.637 0 3.285-.534 4.665-1.632 3.241-2.579 3.778-7.298 1.198-10.539l-85.139-106.989c-2.579-3.241-7.297-3.778-10.539-1.199s-3.778 7.298-1.198 10.539z" fill="#ffffff" data-original="#000000" style=""/><path d="m39.378 230.697c1.112.583 2.304.86 3.478.86 2.699 0 5.308-1.461 6.648-4.017 1.924-3.668.511-8.202-3.157-10.126l-35.361-18.552c-3.667-1.924-8.201-.511-10.126 3.157-1.924 3.668-.511 8.202 3.157 10.126z" fill="#ffffff" data-original="#000000" style=""/><path d="m49.285 320.418c-2.141-3.546-6.75-4.686-10.297-2.546l-32.347 19.52c-3.547 2.14-4.687 6.75-2.547 10.296 1.409 2.334 3.888 3.626 6.429 3.626 1.319 0 2.656-.348 3.868-1.08l32.347-19.52c3.547-2.14 4.686-6.75 2.547-10.296z" fill="#ffffff" data-original="#000000" style=""/><path d="m106.851 386.073c-3.149-2.691-7.884-2.319-10.574.83l-12.023 14.071c-2.69 3.149-2.319 7.883.83 10.574 1.413 1.207 3.145 1.798 4.868 1.798 2.118 0 4.223-.892 5.706-2.628l12.023-14.071c2.691-3.149 2.319-7.883-.83-10.574z" fill="#ffffff" data-original="#000000" style=""/><path d="m73.43 425.188c-3.15-2.692-7.885-2.318-10.574.83l-41.868 49.001c-2.69 3.149-2.319 7.883.83 10.574 1.413 1.208 3.145 1.798 4.868 1.798 2.118 0 4.223-.892 5.706-2.628l41.868-49.001c2.691-3.15 2.32-7.883-.83-10.574z" fill="#ffffff" data-original="#000000" style=""/><path d="m220.545 48.999c1.046 3.146 3.974 5.136 7.116 5.136.784 0 1.582-.124 2.367-.385 3.931-1.307 6.058-5.552 4.751-9.483l-8.279-24.906c-1.308-3.931-5.553-6.057-9.483-4.751-3.931 1.307-6.058 5.552-4.751 9.483z" fill="#ffffff" data-original="#000000" style=""/></g></g></svg>
