<?xml version="1.0"?>
<svg xmlns="http://www.w3.org/2000/svg" xmlns:xlink="http://www.w3.org/1999/xlink" xmlns:svgjs="http://svgjs.com/svgjs" version="1.1" width="512" height="512" x="0" y="0" viewBox="0 0 512 512" style="enable-background:new 0 0 512 512" xml:space="preserve" class=""><g><path xmlns="http://www.w3.org/2000/svg" d="m512 346.5c0-74.628906-50.285156-139.832031-121.195312-159.480469-4.457032-103.878906-90.347657-187.019531-195.304688-187.019531-107.800781 0-195.5 87.699219-195.5 195.5 0 35.132812 9.351562 69.339844 27.109375 99.371094l-26.390625 95.40625 95.410156-26.386719c27.605469 16.324219 58.746094 25.519531 90.886719 26.90625 19.644531 70.914063 84.851563 121.203125 159.484375 121.203125 29.789062 0 58.757812-7.933594 84.210938-23.007812l80.566406 22.285156-22.285156-80.566406c15.074218-25.453126 23.007812-54.421876 23.007812-84.210938zm-411.136719-15.046875-57.117187 15.800781 15.800781-57.117187-3.601563-5.632813c-16.972656-26.554687-25.945312-57.332031-25.945312-89.003906 0-91.257812 74.242188-165.5 165.5-165.5s165.5 74.242188 165.5 165.5-74.242188 165.5-165.5 165.5c-31.671875 0-62.445312-8.972656-89.003906-25.945312zm367.390625 136.800781-42.382812-11.726562-5.660156 3.683594c-21.941407 14.253906-47.433594 21.789062-73.710938 21.789062-58.65625 0-110.199219-37.925781-128.460938-92.308594 89.820313-10.355468 161.296876-81.832031 171.65625-171.65625 54.378907 18.265625 92.304688 69.808594 92.304688 128.464844 0 26.277344-7.535156 51.769531-21.789062 73.710938l-3.683594 5.660156zm0 0" fill="#ffffff" data-original="#000000" style="" class=""/><path xmlns="http://www.w3.org/2000/svg" d="m180.5 271h30v30h-30zm0 0" fill="#ffffff" data-original="#000000" style="" class=""/><path xmlns="http://www.w3.org/2000/svg" d="m225.5 150c0 8.519531-3.46875 16.382812-9.765625 22.144531l-35.234375 32.25v36.605469h30v-23.394531l25.488281-23.328125c12.398438-11.347656 19.511719-27.484375 19.511719-44.277344 0-33.085938-26.914062-60-60-60s-60 26.914062-60 60h30c0-16.542969 13.457031-30 30-30s30 13.457031 30 30zm0 0" fill="#ffffff" data-original="#000000" style="" class=""/></g></svg>
