<svg id="511a656f-4ee7-400d-ad71-a614a191e8da" data-name="Layer 1" xmlns="http://www.w3.org/2000/svg" xmlns:xlink="http://www.w3.org/1999/xlink" width="1159.03" height="868.09" viewBox="0 0 1159.03 868.09"><defs><linearGradient id="f440fdc6-ad77-47c8-8162-ca14690d762e" x1="611.1" y1="658.16" x2="611.1" y2="98.62" gradientUnits="userSpaceOnUse"><stop offset="0" stop-color="#6c63ff" stop-opacity="0.1"/><stop offset="1" stop-color="#6c63ff"/></linearGradient><linearGradient id="1adb2931-c039-4baa-8c46-5924ba71152d" x1="728.31" y1="460.34" x2="729.95" y2="460.34" gradientUnits="userSpaceOnUse"><stop offset="0" stop-color="gray" stop-opacity="0.25"/><stop offset="0.54" stop-color="gray" stop-opacity="0.12"/><stop offset="1" stop-color="gray" stop-opacity="0.1"/></linearGradient><linearGradient id="8f3458d1-231b-4e47-8e43-39db0a9112b7" x1="479.03" y1="552.92" x2="985.87" y2="552.92" xlink:href="#1adb2931-c039-4baa-8c46-5924ba71152d"/></defs><title>night calls</title><path d="M1159.88,691.78a232,232,0,0,1-34.6,56.46c-19.37,23.51-42.72,43.21-67.81,59.68a413.19,413.19,0,0,1-45.17,25.63c-3.85,1.88-7.72,3.72-11.6,5.48A495.43,495.43,0,0,1,860.36,879.5q-15.06,2-30.18,3.14-19,1.4-38,1.4-19.71,0-39.42-1.5-23.24-1.74-46.35-5.6-22.5-3.75-44.69-9.43A533.88,533.88,0,0,1,598,846.83l-.1,0q-16.2-6.4-32-13.9c-4.86-2.29-9.67-4.65-14.47-7.1l-3.87-2q-10.59-5.52-21-11.53-8.6-4.95-17-10.27c-2.5-1.58-5-3.18-7.49-4.81-.21-.12-.4-.25-.61-.39-.84-.55-1.69-1.1-2.53-1.67l-.71-.47q-9.68-6.42-19.1-13.3l-.09-.07q-2.88-2.12-5.76-4.27c-.24-.17-.47-.35-.71-.54-1.1-.81-2.18-1.64-3.27-2.48l-1-.73c-1.57-1.2-3.12-2.43-4.68-3.67-.32-.23-.63-.47-.93-.73,0,0,0,0,0,0-.31-.23-.61-.47-.92-.72-.89-.7-1.78-1.41-2.66-2.13l-.95-.76-.06-.05-3.39-2.77c-.37-.29-.72-.59-1.09-.89l-.91-.76c-1-.81-2-1.63-2.92-2.45l-.12-.09-.6-.51-.31-.26c-.2-.17-.39-.34-.6-.5-1-.87-2-1.73-3-2.61-.16-.12-.31-.26-.47-.39l-.42-.37-.08-.06-.37-.34-1.24-1.07-.88-.77-1.61-1.41c-.47-.41-.94-.82-1.4-1.24l-.37-.33-.13-.11-.91-.82-.37-.32q-1.74-1.56-3.48-3.17c-.95-.85-1.88-1.72-2.82-2.6L429.11,740l-.38-.35c-3.51-3.29-7-6.65-10.53-9.92a156.09,156.09,0,0,0-18.68-15.17c-.44-.3-.88-.59-1.33-.87-1.22-.8-2.46-1.55-3.71-2.26a81.73,81.73,0,0,0-7.94-4,85.36,85.36,0,0,0-22.31-6.1q-4-.55-8-.77l-2-.1c-2.37-.09-4.74-.1-7.12-.05s-4.51.17-6.76.35h0c-3.16.24-6.33.61-9.48,1.08-.4,0-.78.11-1.17.18a193.4,193.4,0,0,0-29.79,7.24c-15.07,4.87-29.89,11-44.79,16.57h0c-6.34,2.37-12.67,4.63-19.07,6.65l-1.41.44a186.4,186.4,0,0,1-27.7,6.57c-.76.12-1.52.22-2.29.32A135,135,0,0,1,154.92,737q-5.78-1.39-11.45-3.27l-.71-.23c-.46-.14-.89-.29-1.33-.44-.6-.21-1.21-.41-1.8-.64-3-1.07-6-2.26-9-3.54-.62-.25-1.22-.51-1.81-.78-2.86-1.27-5.68-2.61-8.47-4.07-.61-.3-1.22-.62-1.81-.92-2.87-1.53-5.69-3.13-8.47-4.83-1-.58-2-1.19-3-1.82q-4.42-2.81-8.67-5.86-4.5-3.26-8.8-6.78c-1.34-1.08-2.65-2.18-3.94-3.32a183.7,183.7,0,0,1-21-21.42c-.36-.41-.7-.82-1-1.23-1.72-2.11-3.41-4.26-5-6.45L56.86,669q-2.89-4-5.61-8.23c-.27-.39-.53-.81-.78-1.22a185.46,185.46,0,0,1-18.26-37.4c-.15-.4-.29-.82-.42-1.23q-2.2-6.3-3.95-12.82c-.48-1.82-.95-3.66-1.36-5.5-.14-.54-.27-1.1-.39-1.63a268.71,268.71,0,0,1-5.6-41.13V446.37c.86-23.75,2.47-47.43,5.55-70.72,0-.3.07-.62.11-.91,2-14.82,4.56-29.48,7.91-43.91a353.58,353.58,0,0,1,13.32-44.5C58.29,257.2,73.27,230.25,90.16,205q5.63-8.4,11.5-16.56c20.83-29,44.16-56.21,69.73-80.06q5.33-5,10.77-9.74c1.55-1.36,3.1-2.69,4.66-4,1.23-1,2.45-2.09,3.69-3.11Q197.64,85.57,205,80c.75-.57,1.51-1.13,2.26-1.68s1.58-1.19,2.37-1.76a0,0,0,0,1,0,0c1.62-1.19,3.24-2.37,4.89-3.54l1.84-1.3,3.5-2.43,1.05-.7c.61-.43,1.23-.85,1.87-1.26s1.22-.83,1.85-1.23c2.17-1.45,4.35-2.86,6.55-4.25a328,328,0,0,1,29.05-16.37c2.91-1.47,5.86-2.88,8.82-4.24A286.14,286.14,0,0,1,310.3,25.9Q318.1,23.67,326,22c6.19-1.36,12.44-2.49,18.7-3.38a265.69,265.69,0,0,1,30.05-2.53c70.67-1.95,142,24.12,197.43,74.08,3.07,2.77,6.09,5.61,9.08,8.48,7.83,7.5,15.49,15.26,23.34,22.74,9.55,9.08,19.37,17.72,30.09,24.86q2.05,1.36,4.17,2.68c21.58,13.29,47,18.79,70.14,8.33l3.9-1.74c10.91-4.8,19.82-8,30.09-9.37a97.73,97.73,0,0,1,19.13-.51,383.27,383.27,0,0,1,59.08,8.29q15.17,3.32,30.09,7.83a421.16,421.16,0,0,1,41,14.76c1.69.7,3.38,1.43,5.06,2.15q16.3,7.08,32.12,15.52,15.32,8.18,30.09,17.6a468.11,468.11,0,0,1,53.8,39.92c.32.26.63.54,1,.83.51.42,1,.86,1.53,1.32,1,.88,2.08,1.8,3.1,2.71l1.57,1.39q2.61,2.32,5.19,4.72c.4.34.79.71,1.18,1.08s.95.86,1.41,1.31q4.82,4.47,9.49,9.09,15.69,15.44,30.08,32.44a492,492,0,0,1,64.17,97.1q9,17.88,16.6,36.7c1.29,3.18,2.54,6.4,3.75,9.63C1181.42,526.84,1191.89,616.89,1159.88,691.78Z" transform="translate(-20.49 -15.96)" fill="#3f3d56"/><path d="M1132,403.67V658.16H90.16V205q5.63-8.4,11.5-16.56c20.83-29,44.16-56.21,69.73-80.06q5.33-5,10.77-9.74H581.24c7.83,7.5,15.49,15.26,23.34,22.74,9.55,9.08,19.37,17.72,30.09,24.86q2.05,1.36,4.17,2.68c21.58,13.29,47,18.79,70.14,8.33l3.9-1.74c10.91-4.8,19.82-8,30.09-9.37a97.73,97.73,0,0,1,19.13-.51,383.27,383.27,0,0,1,59.08,8.29q15.17,3.32,30.09,7.83a421.16,421.16,0,0,1,41,14.76c1.69.7,3.38,1.43,5.06,2.15q16.3,7.08,32.12,15.52,15.32,8.18,30.09,17.6a468.11,468.11,0,0,1,53.8,39.92c.32.26.63.54,1,.83.51.42,1,.86,1.53,1.32,1,.88,2.08,1.8,3.1,2.71l1.57,1.39q2.61,2.32,5.19,4.72c.4.34.79.71,1.18,1.08s.95.86,1.41,1.31q4.82,4.47,9.49,9.09,15.69,15.44,30.08,32.44A492,492,0,0,1,1132,403.67Z" transform="translate(-20.49 -15.96)" fill="#fff" opacity="0.1"/><path d="M1132,403.67V658.16H90.16V205q5.63-8.4,11.5-16.56c20.83-29,44.16-56.21,69.73-80.06q5.33-5,10.77-9.74H581.24c7.83,7.5,15.49,15.26,23.34,22.74,9.55,9.08,19.37,17.72,30.09,24.86q2.05,1.36,4.17,2.68c21.58,13.29,47,18.79,70.14,8.33l3.9-1.74c10.91-4.8,19.82-8,30.09-9.37a97.73,97.73,0,0,1,19.13-.51,383.27,383.27,0,0,1,59.08,8.29q15.17,3.32,30.09,7.83a421.16,421.16,0,0,1,41,14.76c1.69.7,3.38,1.43,5.06,2.15q16.3,7.08,32.12,15.52,15.32,8.18,30.09,17.6a468.11,468.11,0,0,1,53.8,39.92c.32.26.63.54,1,.83.51.42,1,.86,1.53,1.32,1,.88,2.08,1.8,3.1,2.71l1.57,1.39q2.61,2.32,5.19,4.72c.4.34.79.71,1.18,1.08s.95.86,1.41,1.31q4.82,4.47,9.49,9.09,15.69,15.44,30.08,32.44A492,492,0,0,1,1132,403.67Z" transform="translate(-20.49 -15.96)" opacity="0.1" fill="url(#f440fdc6-ad77-47c8-8162-ca14690d762e)"/><rect x="1032.34" y="483.86" width="79.22" height="158.8" fill="#fff" opacity="0.1"/><polygon points="208.06 367.45 208.06 276.2 125.83 276.2 125.83 367.45 69.68 367.45 69.68 642.21 240.15 642.21 240.15 367.45 208.06 367.45" fill="#fff" opacity="0.1"/><path d="M634.67,146.22V661.54H604.58V121.36C614.13,130.44,624,139.08,634.67,146.22Z" transform="translate(-20.49 -15.96)" fill="#3f3d56"/><path d="M712.88,155.49c10.91-4.8,19.82-8,30.09-9.37V661.54H712.88Z" transform="translate(-20.49 -15.96)" fill="#3f3d56"/><path d="M821.18,153.9q15.17,3.32,30.09,7.83V661.54H821.18Z" transform="translate(-20.49 -15.96)" fill="#3f3d56"/><rect x="95.75" y="394.53" width="35.1" height="20.06" fill="#fff" opacity="0.1"/><rect x="177.47" y="394.53" width="35.1" height="20.06" fill="#fff" opacity="0.1"/><rect x="1054.4" y="502.33" width="35.1" height="20.06" fill="#fff" opacity="0.1"/><rect x="1054.4" y="541.51" width="35.1" height="20.06" fill="#fff" opacity="0.1"/><rect x="1054.4" y="580.7" width="35.1" height="20.06" fill="#fff" opacity="0.1"/><rect x="1054.4" y="619.89" width="35.1" height="20.06" fill="#fff" opacity="0.1"/><rect x="95.75" y="448.72" width="35.1" height="20.06" fill="#fff" opacity="0.1"/><rect x="177.47" y="448.72" width="35.1" height="20.06" fill="#fff" opacity="0.1"/><rect x="95.75" y="502.92" width="35.1" height="20.06" fill="#fff" opacity="0.1"/><rect x="177.47" y="502.92" width="35.1" height="20.06" fill="#fff" opacity="0.1"/><rect x="95.75" y="557.12" width="35.1" height="20.06" fill="#fff" opacity="0.1"/><rect x="177.47" y="557.12" width="35.1" height="20.06" fill="#fff" opacity="0.1"/><rect x="95.75" y="611.32" width="35.1" height="20.06" fill="#fff" opacity="0.1"/><rect x="177.47" y="611.32" width="35.1" height="20.06" fill="#fff" opacity="0.1"/><path d="M201.48,94.61V661.54H171.39V108.36q5.33-5,10.77-9.74c1.55-1.36,3.1-2.69,4.66-4Z" transform="translate(-20.49 -15.96)" fill="#3f3d56"/><rect x="830.78" y="382.49" width="160.44" height="259.72" fill="#fff" opacity="0.1"/><rect x="852.23" y="417.73" width="117.55" height="25.29" fill="#fff" opacity="0.1"/><rect x="852.23" y="474.14" width="117.55" height="25.29" fill="#fff" opacity="0.1"/><rect x="852.23" y="530.54" width="117.55" height="25.29" fill="#fff" opacity="0.1"/><rect x="852.23" y="586.95" width="117.55" height="25.29" fill="#fff" opacity="0.1"/><path d="M929.48,194.16q15.32,8.18,30.09,17.6V661.54H929.48Z" transform="translate(-20.49 -15.96)" fill="#3f3d56"/><path d="M1037.79,274.13q15.69,15.44,30.08,32.44v355h-30.08Z" transform="translate(-20.49 -15.96)" fill="#3f3d56"/><circle cx="201.35" cy="128.36" r="3.4" fill="#fff" opacity="0.3"/><circle cx="215.98" cy="166.29" r="1.06" fill="#fff" opacity="0.3"/><circle cx="427.9" cy="181.69" r="1.06" fill="#fff" opacity="0.3"/><circle cx="523.22" cy="124.95" r="1.06" fill="#fff" opacity="0.3"/><circle cx="333.64" cy="171.14" r="1.06" fill="#fff" opacity="0.3"/><circle cx="100.19" cy="172.2" r="1.06" fill="#fff" opacity="0.3"/><circle cx="428.96" cy="139.13" r="1.06" fill="#fff" opacity="0.3"/><circle cx="542.44" cy="157.29" r="1.06" fill="#fff" opacity="0.3"/><circle cx="338.41" cy="291.93" r="1.06" fill="#fff" opacity="0.3"/><circle cx="310.94" cy="128.36" r="1.06" fill="#fff" opacity="0.3"/><circle cx="214.92" cy="230.33" r="1.06" fill="#fff" opacity="0.3"/><circle cx="303.16" cy="222.13" r="1.06" fill="#fff" opacity="0.3"/><circle cx="454.9" cy="220.02" r="1.06" fill="#fff" opacity="0.3"/><circle cx="749.95" cy="198.79" r="1.06" fill="#fff" opacity="0.3"/><circle cx="636.47" cy="173.26" r="1.06" fill="#fff" opacity="0.3"/><circle cx="852.23" cy="294.05" r="1.06" fill="#fff" opacity="0.3"/><circle cx="531.01" cy="310.74" r="1.06" fill="#fff" opacity="0.3"/><path d="M1125.28,748.24c-19.37,23.51-42.72,43.21-67.81,59.68a413.19,413.19,0,0,1-45.17,25.63c-3.85,1.88-7.72,3.72-11.6,5.48A495.43,495.43,0,0,1,860.36,879.5q-15.06,2-30.18,3.14-19,1.4-38,1.4-19.71,0-39.42-1.5-23.24-1.74-46.35-5.6-22.5-3.75-44.69-9.43A533.88,533.88,0,0,1,598,846.83l-.1,0q-16.2-6.4-32-13.9c-4.86-2.29-9.67-4.65-14.47-7.1l-3.87-2q-10.59-5.52-21-11.53-8.6-4.95-17-10.27c-2.5-1.58-5-3.18-7.49-4.81-.21-.12-.4-.25-.61-.39-.84-.55-1.69-1.1-2.53-1.67l-.71-.47q-9.68-6.42-19.1-13.3l-.09-.07q-2.88-2.12-5.76-4.27c-.24-.17-.47-.35-.71-.54-1.1-.81-2.18-1.64-3.27-2.48l-1-.73c-1.57-1.2-3.12-2.43-4.68-3.67-.32-.23-.63-.47-.93-.73,0,0,0,0,0,0-.31-.23-.61-.47-.92-.72-.89-.7-1.78-1.41-2.66-2.13l-.95-.76-.06-.05-3.39-2.77c-.37-.29-.72-.59-1.09-.89l-.91-.76c-1-.81-2-1.63-2.92-2.45l-.12-.09-.6-.51-.31-.26c-.2-.17-.39-.34-.6-.5-1-.87-2-1.73-3-2.61-.16-.12-.31-.26-.47-.39l-.42-.37-.08-.06-.37-.34-1.24-1.07-.88-.77-1.61-1.41c-.47-.41-.94-.82-1.4-1.24l-.37-.33-.13-.11Z" transform="translate(-20.49 -15.96)" fill="#fff" opacity="0.2"/><path d="M1057.47,807.92a413.19,413.19,0,0,1-45.17,25.63c-3.85,1.88-7.72,3.72-11.6,5.48-68.8,15.11-192.9,26-339,28.48A533.88,533.88,0,0,1,598,846.83l-.1,0q-16.2-6.4-32-13.9c-4.86-2.29-9.67-4.65-14.47-7.1l-3.87-2q-10.59-5.52-21-11.53-8.6-4.95-17-10.27c-2.5-1.58-5-3.18-7.49-4.81-.21-.12-.4-.25-.61-.39-.84-.55-1.69-1.1-2.53-1.67l-.71-.47q-9.68-6.42-19.1-13.3l-.09-.07q-2.88-2.12-5.76-4.27c-.24-.17-.47-.35-.71-.54-1.1-.81-2.18-1.64-3.27-2.48l-1-.73c-1.57-1.2-3.12-2.43-4.68-3.67-.32-.23-.63-.47-.93-.73,0,0,0,0,0,0-.31-.23-.61-.47-.92-.72-.89-.7-1.78-1.41-2.66-2.13l-.95-.76-.06-.05-3.39-2.77c-.37-.29-.72-.59-1.09-.89l-.91-.76c-1-.81-2-1.63-2.92-2.45,1.81-.07,3.63-.15,5.46-.21l1-.05.65,0,.86,0h0l5.79-.2h0l.75,0,1.71,0,3.27-.12,1,0c1.59-.07,3.18-.12,4.79-.17h0c.29,0,.57,0,.86,0h0l1.12,0,1,0h0l.87,0h0c2.15-.08,4.3-.14,6.46-.21l.78,0h.34l5-.14h0l1.06,0,3.38-.1h0l13.91-.34h.52l11.67-.25,1.89,0q19.13-.36,38.74-.53h.61l5.37,0h1.42q12.93-.1,26-.1c3.34,0,6.67,0,10,0,.37,0,.73,0,1.1,0,5.51,0,11,0,16.46.09,3.46,0,6.89,0,10.33.07h1.12c26.79.28,52.94.83,78.23,1.64l.63,0c5.28.16,10.53.34,15.72.54,53,1.94,102,5,145.14,9,32.46,3,61.59,6.49,86.56,10.41.36,0,.7.1,1.05.17l3.34.52,1.84.31c1.15.18,2.28.37,3.41.57.8.12,1.61.26,2.4.4C1021.37,787.4,1051.61,797.25,1057.47,807.92Z" transform="translate(-20.49 -15.96)" fill="#4b4770"/><path d="M1028.3,265A47.85,47.85,0,0,1,1017.67,283a27.58,27.58,0,0,1-8.16,6.11,12,12,0,0,1-7,2.9,24.05,24.05,0,0,1-5.75-.28c-5.33-.92-5.43,1.82-5.43,1.82-5.93-3-4.7-9.53-4.7-9.53-3.6-21.4,12.51-29.38,26.77-32.31.32.26.63.54,1,.83a15.1,15.1,0,0,0-2.54.28s.09.54,2,.74c.46,0,1.19.16,2,.3,1,.88,2.08,1.8,3.1,2.71l-1,.45c-10.5-3.3-16.15-.26-16.15-.26,5.36-.69,14.35,1.24,14.35,1.24l-6.12,3.67c-11.38-3.21-16.53,1.19-16.53,1.19,4.47-1.6,15-.15,15-.15l-5.63,4.58C992.83,265,988.55,270,988.55,270c4.86-2.16,12.87-1.48,12.87-1.48-1.1.34-5.19,6-5.19,6-8.07.46-8.83,5.73-8.83,5.73,2.79-3.11,7.6-3.94,7.6-3.94-4.06,5.68-4.28,13.28-4.28,13.28.52-5.11,5.47-12.56,5.47-12.56,1.24.06,2.75,11.3,2.75,11.3,2.44-4.37-1.51-12.66-1.51-12.66.76-1.81,5.74-6.21,5.74-6.21,3,1.28,3.49,18.16,3.49,18.16,3.51-7.83-2.25-19.26-2.25-19.26l5.7-4.45c4.36,5.66,3.29,20.16,3.29,20.16,4.16-9.46-2-21.05-2-21.05l6.28-3.66c4.43,4.74,2.93,18.55,2.93,18.55,4-8.15-1.28-19.37-1.28-19.37l1.16-.58q2.61,2.32,5.19,4.72c.24,2.56.29,4.92.29,4.92a10.74,10.74,0,0,0,.89-3.84C1027.37,264.16,1027.84,264.59,1028.3,265Z" transform="translate(-20.49 -15.96)" fill="#fff" opacity="0.1"/><path d="M888.74,221.91s-23.64,28.55-.13,40.34c0,0,3.18,3.4,7.31,1.27,0,0-1.51-1.18,1.22-3.81a17.12,17.12,0,0,0,2.53-3.13,8.3,8.3,0,0,0,1.26-5.16h0s2.68-10.94-8.66-24.24c0,0-1.23-4.6-2.07-5.07l-1.53,6.61s4.9.94,6.93,4.51c0,0-6.65-4.61-7.2-3.53-.12.22-.66,3.54-.66,3.54s8.5,1.67,11.47,7.27c0,0-7.18-6.56-11.69-6l-.52,5.06s9.07,1.32,12.7,7.58c0,0-7.75-6.6-12.74-6.46l.16,5s8.82,1.46,11.8,6.68c0,0-9.72-6.71-11.69-5.53,0,0,.42,4.62,1.13,5.8,0,0,6.31,1.2,7.77,4.38,0,0-7-3.79-7.51-3.12,0,0,2.16,5.88,4.83,8.28a19,19,0,0,1-5.73-7.89,10.41,10.41,0,0,0-.92,5.91s-2.65-2.61.41-7.35c0,0-1.5-4.65-1.24-5.41,0,0-3.68,4.25-4.47,7.88,0,0-1-4.47,4.39-9.21l-.27-5.07s-5.17,5.35-6.12,8.54c0,0-.36-4.72,6.15-9.83l.46-5s-4.8,4.28-6.62,7.59c0,0,.61-4.45,6.81-9l.7-3.28s-3.45,3.19-4.36,4.19-1.26.84-1.26.84a16,16,0,0,1,5.89-6.41S889.14,222.06,888.74,221.91Z" transform="translate(-20.49 -15.96)" fill="#fff" opacity="0.1"/><path d="M138.74,682.51s-7.14,33.26,24.65,37.21l2-3.7S140.72,692.86,138.74,682.51Z" transform="translate(-20.49 -15.96)" fill="#6c63ff"/><path d="M175.47,715.77l-7.4,1.57-.74.16s-19.72-16-19.47-51.75a89.73,89.73,0,0,0,9.42,14.9C165.1,691,174,704.8,175.47,715.77Z" transform="translate(-20.49 -15.96)" fill="#6c63ff"/><path d="M178,719.2a4.66,4.66,0,0,1-4,.52c-19-4.44-12.57-66.28-12.57-66.28,1.05.48,2.2,8.35,6.56,18.51C175.64,689.79,184.06,714.72,178,719.2Z" transform="translate(-20.49 -15.96)" fill="#6c63ff"/><path d="M220.06,682.51s1.23,33.26-30.55,37.21l-2-3.7S218.09,692.86,220.06,682.51Z" transform="translate(-20.49 -15.96)" fill="#6c63ff"/><path d="M211,665.75c.24,35.74-25.39,51.75-25.39,51.75l-.74-.16-7.39-1.57c1.47-11,10.37-24.78,18.17-35.12A80.28,80.28,0,0,1,211,665.75Z" transform="translate(-20.49 -15.96)" fill="#6c63ff"/><path d="M184.71,716a11.8,11.8,0,0,1-4.23,3.24h0a8.56,8.56,0,0,1-1.55.52c-4.67,1.09-6.3-2.28-6-8,.44-10.19,6.84-27.86,12.59-41.08,4.14-9.52,10.92-16.73,11.92-17.2C197.39,653.44,197.11,701.59,184.71,716Z" transform="translate(-20.49 -15.96)" fill="#6c63ff"/><path d="M179.4,631.75s-21.19,75.15-3,86.49S184.08,638.4,179.4,631.75Z" transform="translate(-20.49 -15.96)" fill="#6c63ff"/><path d="M138.74,682.51s-7.14,33.26,24.65,37.21l2-3.7S140.72,692.86,138.74,682.51Z" transform="translate(-20.49 -15.96)" opacity="0.1"/><path d="M175.47,715.77l-7.4,1.57-.74.16s-19.72-16-19.47-51.75a89.73,89.73,0,0,0,9.42,14.9C165.1,691,174,704.8,175.47,715.77Z" transform="translate(-20.49 -15.96)" opacity="0.1"/><path d="M178,719.2a4.66,4.66,0,0,1-4,.52c-19-4.44-12.57-66.28-12.57-66.28,1.05.48,2.2,8.35,6.56,18.51C175.64,689.79,184.06,714.72,178,719.2Z" transform="translate(-20.49 -15.96)" opacity="0.1"/><path d="M220.06,682.51s1.23,33.26-30.55,37.21l-2-3.7S218.09,692.86,220.06,682.51Z" transform="translate(-20.49 -15.96)" opacity="0.1"/><path d="M211,665.75c.24,35.74-25.39,51.75-25.39,51.75l-.74-.16-7.39-1.57c1.47-11,10.37-24.78,18.17-35.12A80.28,80.28,0,0,1,211,665.75Z" transform="translate(-20.49 -15.96)" opacity="0.1"/><path d="M184.71,716a11.8,11.8,0,0,1-4.23,3.24h0a8.56,8.56,0,0,1-1.55.52c-4.67,1.09-6.3-2.28-6-8,.44-10.19,6.84-27.86,12.59-41.08,4.14-9.52,10.92-16.73,11.92-17.2C197.39,653.44,197.11,701.59,184.71,716Z" transform="translate(-20.49 -15.96)" opacity="0.1"/><path d="M179.4,631.75s-21.19,75.15-3,86.49S184.08,638.4,179.4,631.75Z" transform="translate(-20.49 -15.96)" opacity="0.1"/><path d="M138.74,682.51s-4.18,33.26,27.6,37.21l2-3.7S140.72,692.86,138.74,682.51Z" transform="translate(-20.49 -15.96)" fill="#6c63ff"/><path d="M178.42,715.77,171,717.34l-.74.16s-22.68-16-22.43-51.75c0,0,5.81,6.23,12.38,14.9C168.06,691,176.94,704.8,178.42,715.77Z" transform="translate(-20.49 -15.96)" fill="#6c63ff"/><path d="M178.42,715.77,171,717.34c-7-6.16-9.79-22.21-10.79-36.69C168.06,691,176.94,704.8,178.42,715.77Z" transform="translate(-20.49 -15.96)" opacity="0.1"/><path d="M180.92,719.2a4.68,4.68,0,0,1-4,.52c-19-4.44-15.52-66.28-15.52-66.28,1.05.48,5.16,8.35,9.52,18.51C178.6,689.79,187,714.72,180.92,719.2Z" transform="translate(-20.49 -15.96)" fill="#6c63ff"/><path d="M220.06,682.51s4.19,33.26-27.6,37.21l-2-3.7S218.09,692.86,220.06,682.51Z" transform="translate(-20.49 -15.96)" fill="#6c63ff"/><path d="M211,665.75c.24,35.74-22.43,51.75-22.43,51.75l-.74-.16-7.39-1.57c1.46-11,10.36-24.78,18.17-35.12C205.14,672,211,665.75,211,665.75Z" transform="translate(-20.49 -15.96)" fill="#6c63ff"/><path d="M198.56,680.65c-.95,13.5-3.42,28.36-9.42,35.31a12.7,12.7,0,0,1-1.36,1.38l-7.39-1.57C181.85,704.8,190.75,691,198.56,680.65Z" transform="translate(-20.49 -15.96)" opacity="0.1"/><path d="M187.66,716a11.63,11.63,0,0,1-4.23,3.24h0a8.56,8.56,0,0,1-1.55.52c-4.68,1.09-6.3-2.28-6-8,.45-10.19,6.85-27.86,12.6-41.08,4.14-9.52,8-16.73,9-17.2C197.39,653.44,200.07,701.59,187.66,716Z" transform="translate(-20.49 -15.96)" fill="#6c63ff"/><path d="M180.92,719.2a5.33,5.33,0,0,1-3-1c-8.93-5.56-9.11-26.44-7-46.29C178.6,689.79,187,714.72,180.92,719.2Z" transform="translate(-20.49 -15.96)" opacity="0.1"/><path d="M187.66,716c-1,2.22-2.41,3.4-4.23,3.24h0a6.14,6.14,0,0,1-2.54-1,13.56,13.56,0,0,1-5-6.52c.45-10.19,6.85-27.86,12.6-41.08C190.49,689,191.17,708.43,187.66,716Z" transform="translate(-20.49 -15.96)" opacity="0.1"/><path d="M179.4,631.75s-18.23,75.15,0,86.49S184.08,638.4,179.4,631.75Z" transform="translate(-20.49 -15.96)" fill="#6c63ff"/><path d="M208,721.94l-1,5.17-.28,1.47-2.14,11.26A135,135,0,0,1,154.92,737l-1.61-8.42-.27-1.47-1-5.17Z" transform="translate(-20.49 -15.96)" fill="#4b4770"/><polygon points="187.5 705.98 186.23 712.63 132.83 712.63 131.56 705.98 187.5 705.98" opacity="0.1"/><rect x="120.97" y="698.59" width="75.9" height="12.57" fill="#4b4770"/><path d="M1053.19,651.29a16.84,16.84,0,0,0-2.21,4.18c-.14.36-.27.78-.41,1.18a3.52,3.52,0,0,0-.77-.27,10.69,10.69,0,0,0-3.47-.3c0-.45.05-.92.07-1.42.14-5.13-.46-12.28-5.35-9.25-4.7,2.91-1.35,7.76,1.68,10.9.26.27.52.52.77.76-2.75,2-3.28,6.55-3.74,11.33s-4.51,10-7.2,13l-.76.82a9.84,9.84,0,0,0-7.83-2q-.16-.63-.36-1.32c-2.18-7.86-6.7-21.49-12.47-24.48.24-.3.5-.62.76-1,2.45-3.21,5.21-8,1.13-9.19s-4.44,4.14-4.22,8.14c0,.5.08,1,.12,1.42a6,6,0,0,0-4.27,2.09c-.19-.24-.4-.49-.62-.75-3.31-3.91-9.37-10.08-11.21-5.41-1.71,4.36,3.63,10,7.38,13.3l.24.2c-2.52,10.23,8.48,18.57,14.4,22.21l.77.47c-8.17,9.63-13.22,27.68-13.22,27.68l22.88,4.08s15.17-13.09,13.23-25.38l.16,0c15.16-3,18.6-19.2,16.24-28.8l.27-.11a17.28,17.28,0,0,0,7-5.31C1066.44,652.16,1057.55,645.51,1053.19,651.29Z" transform="translate(-20.49 -15.96)" fill="#6c63ff"/><path d="M1053.19,651.29a16.84,16.84,0,0,0-2.21,4.18c-.14.36-.27.78-.41,1.18a3.52,3.52,0,0,0-.77-.27,10.69,10.69,0,0,0-3.47-.3c0-.45.05-.92.07-1.42.14-5.13-.46-12.28-5.35-9.25-4.7,2.91-1.35,7.76,1.68,10.9.26.27.52.52.77.76-2.75,2-3.28,6.55-3.74,11.33s-4.51,10-7.2,13l-.76.82a9.84,9.84,0,0,0-7.83-2q-.16-.63-.36-1.32c-2.18-7.86-6.7-21.49-12.47-24.48.24-.3.5-.62.76-1,2.45-3.21,5.21-8,1.13-9.19s-4.44,4.14-4.22,8.14c0,.5.08,1,.12,1.42a6,6,0,0,0-4.27,2.09c-.19-.24-.4-.49-.62-.75-3.31-3.91-9.37-10.08-11.21-5.41-1.71,4.36,3.63,10,7.38,13.3l.24.2c-2.52,10.23,8.48,18.57,14.4,22.21l.77.47c-8.17,9.63-13.22,27.68-13.22,27.68l22.88,4.08s15.17-13.09,13.23-25.38l.16,0c15.16-3,18.6-19.2,16.24-28.8l.27-.11a17.28,17.28,0,0,0,7-5.31C1066.44,652.16,1057.55,645.51,1053.19,651.29Z" transform="translate(-20.49 -15.96)" opacity="0.1"/><path d="M1007.65,657.89l-2.67,7.83s-1.49-1.05-3.37-2.7c-3.75-3.28-9.09-8.94-7.38-13.3,1.84-4.67,7.9,1.5,11.21,5.41C1006.77,656.69,1007.65,657.89,1007.65,657.89Z" transform="translate(-20.49 -15.96)" fill="#6c63ff"/><path d="M1013.3,653.42a38.07,38.07,0,0,1-2.61,3.07,40.34,40.34,0,0,1-.47-4.12c-.23-4,.19-9.33,4.21-8.14S1015.75,650.21,1013.3,653.42Z" transform="translate(-20.49 -15.96)" fill="#6c63ff"/><path d="M1047.8,654.66c-.09,2.57-.34,4.63-.34,4.63a33.63,33.63,0,0,1-3.33-3c-3-3.14-6.37-8-1.68-10.9C1047.34,642.38,1047.94,649.53,1047.8,654.66Z" transform="translate(-20.49 -15.96)" fill="#6c63ff"/><path d="M1063.6,658a17.28,17.28,0,0,1-7,5.31,18.78,18.78,0,0,1-2.35.85l-3.15-4.42a30,30,0,0,1,1.3-4.3,16.84,16.84,0,0,1,2.21-4.18C1059,645.51,1067.84,652.16,1063.6,658Z" transform="translate(-20.49 -15.96)" fill="#6c63ff"/><path d="M1005.44,655.13c1.33,1.56,2.21,2.76,2.21,2.76l-2.67,7.83s-1.49-1.05-3.37-2.7a15.43,15.43,0,0,1,3-6.88C1004.89,655.78,1005.17,655.44,1005.44,655.13Z" transform="translate(-20.49 -15.96)" opacity="0.1"/><path d="M1013.3,653.42a38.07,38.07,0,0,1-2.61,3.07,40.34,40.34,0,0,1-.47-4.12A5.39,5.39,0,0,1,1013.3,653.42Z" transform="translate(-20.49 -15.96)" opacity="0.1"/><path d="M1026.45,684.51l-6.65,2.92s-1.46-.7-3.55-2c-7-4.3-21-15.13-11.62-27.89s17.28,10.13,20.38,21.32C1026,682.21,1026.45,684.51,1026.45,684.51Z" transform="translate(-20.49 -15.96)" fill="#6c63ff"/><path d="M1044.13,656.31a5.44,5.44,0,0,1,3.67-1.65c-.09,2.57-.34,4.63-.34,4.63A33.63,33.63,0,0,1,1044.13,656.31Z" transform="translate(-20.49 -15.96)" opacity="0.1"/><path d="M1056.58,663.34a18.78,18.78,0,0,1-2.35.85l-3.15-4.42a30,30,0,0,1,1.3-4.3C1054.41,656.66,1055.91,659.61,1056.58,663.34Z" transform="translate(-20.49 -15.96)" opacity="0.1"/><path d="M1040.07,692.25l-1.12.2c-22.3,3.39-7.36-8.64-7.36-8.64s1-.93,2.37-2.44c2.69-3,6.74-8.17,7.2-13,.7-7.23,1.51-14,10-12C1059.58,658.34,1061.18,688,1040.07,692.25Z" transform="translate(-20.49 -15.96)" fill="#6c63ff"/><rect x="979.35" y="731.82" width="42.61" height="11.21" fill="#4b4770"/><path d="M1025,678.86c.94,3.35,1.44,5.65,1.44,5.65l-6.65,2.92s-1.46-.7-3.55-2C1018.86,682.12,1021.8,679.63,1025,678.86Z" transform="translate(-20.49 -15.96)" opacity="0.1"/><path d="M1040.07,692.25l-1.12.2c-22.3,3.39-7.36-8.64-7.36-8.64s1-.93,2.37-2.44C1038.12,684.7,1039.84,688.46,1040.07,692.25Z" transform="translate(-20.49 -15.96)" opacity="0.1"/><path d="M1003.8,713.58s12.49-44.71,30-30.94-7.12,35-7.12,35Z" transform="translate(-20.49 -15.96)" fill="#6c63ff"/><circle cx="989.62" cy="648.59" r="1.4" opacity="0.1"/><circle cx="989.5" cy="655.13" r="1.4" opacity="0.1"/><circle cx="1030.13" cy="649.88" r="1.4" opacity="0.1"/><circle cx="997.44" cy="683.38" r="1.4" opacity="0.1"/><circle cx="1027.21" cy="660.73" r="1.4" opacity="0.1"/><circle cx="1012.73" cy="675.21" r="1.4" opacity="0.1"/><circle cx="994.41" cy="651.4" r="1.4" opacity="0.1"/><circle cx="1026.27" cy="654.08" r="1.4" opacity="0.1"/><circle cx="1021.49" cy="664.94" r="1.4" opacity="0.1"/><circle cx="1006.78" cy="682.33" r="1.4" opacity="0.1"/><circle cx="1003.75" cy="675.44" r="1.4" opacity="0.1"/><circle cx="996.51" cy="659.92" r="1.4" opacity="0.1"/><rect x="979.35" y="731.82" width="42.61" height="4.09" opacity="0.1"/><rect x="972.58" y="695.4" width="55.68" height="39.11" fill="#4b4770"/><circle cx="1008.65" cy="688.63" r="1.4" opacity="0.1"/><circle cx="1000.24" cy="690.38" r="1.4" opacity="0.1"/><rect x="367.5" y="78.65" width="30.08" height="566.93" fill="#3f3d56"/><rect x="259.2" y="78.65" width="30.08" height="566.93" fill="#3f3d56"/><rect x="475.8" y="78.65" width="30.08" height="566.93" fill="#3f3d56"/><path d="M492.35,738.83,448,748.24l-7.91,1.68c-.47-.41-.94-.82-1.4-1.24l-.37-.33-.13-.11-.91-.82-.37-.32q-1.74-1.56-3.48-3.17L488,731.85l2.54,4,.05.1.17.27.09.13Z" transform="translate(-20.49 -15.96)" fill="#464a5f"/><path d="M493.49,735.26l-3,.62L436.87,747.1q-1.74-1.56-3.48-3.17c-.95-.85-1.88-1.72-2.82-2.6L429.11,740l-.38-.35c-3.51-3.29-7-6.65-10.53-9.92a156.09,156.09,0,0,0-18.68-15.17c-.44-.3-.88-.59-1.33-.87-1.22-.8-2.46-1.55-3.71-2.26a81.73,81.73,0,0,0-7.94-4,85.36,85.36,0,0,0-22.31-6.1q-4-.55-8-.77l-2-.1-6.4-38a3.19,3.19,0,0,1,2.81-3.7l5.85-.63L388,654.8l30.08-3.21,60-6.39a3,3,0,0,1,1.15.08,3.19,3.19,0,0,1,2.33,2.65l1.4,10.23Z" transform="translate(-20.49 -15.96)" fill="#464a5f"/><path d="M493.49,735.26l-3,.62L436.87,747.1q-1.74-1.56-3.48-3.17c-.95-.85-1.88-1.72-2.82-2.6L429.11,740l-.38-.35c-3.51-3.29-7-6.65-10.53-9.92a156.09,156.09,0,0,0-18.68-15.17c-.44-.3-.88-.59-1.33-.87-1.22-.8-2.46-1.55-3.71-2.26a81.73,81.73,0,0,0-7.94-4,85.36,85.36,0,0,0-22.31-6.1q-4-.55-8-.77l-2-.1-6.4-38a3.19,3.19,0,0,1,2.81-3.7l5.85-.63L388,654.8l30.08-3.21,60-6.39a3,3,0,0,1,1.15.08,3.19,3.19,0,0,1,2.33,2.65l1.4,10.23Z" transform="translate(-20.49 -15.96)" opacity="0.1"/><path d="M495.43,735.26l-.73.15-4,.84-7.42,1.55-46.06,9.62-.37-.32q-1.74-1.56-3.48-3.17c-.95-.85-1.88-1.72-2.82-2.6L429.11,740l-.38-.35c-3.51-3.29-7-6.65-10.53-9.92a156.09,156.09,0,0,0-18.68-15.17c-.44-.3-.88-.59-1.33-.87-1.22-.8-2.46-1.55-3.71-2.26a81.73,81.73,0,0,0-7.94-4,85.36,85.36,0,0,0-22.31-6.1q-4-.55-8-.77l-6.42-38.08a3.18,3.18,0,0,1,2.8-3.7l5.85-.63L388,655l30.08-3.21,61.16-6.52.79-.08a3.18,3.18,0,0,1,3.49,2.73l1.4,10.23Z" transform="translate(-20.49 -15.96)" fill="#464a5f"/><path d="M487.64,728l-58.53,12-.38-.35c-3.51-3.29-7-6.65-10.53-9.92a156.09,156.09,0,0,0-18.68-15.17c-.44-.3-.88-.59-1.33-.87-1.22-.8-2.46-1.55-3.71-2.26a81.73,81.73,0,0,0-7.94-4,85.36,85.36,0,0,0-22.31-6.1l-5.6-34.4,44.72-5.4,14.72-1.77,13.24-1.61,45.62-5.5.78,5.5Z" transform="translate(-20.49 -15.96)" fill="#6c63ff"/><path d="M545.54,784l-44.08,12.81c-.84-.55-1.69-1.1-2.53-1.67l-.71-.47q-9.68-6.42-19.1-13.3l-.09-.07q-2.88-2.12-5.76-4.27c-.24-.17-.47-.35-.71-.54-1.1-.81-2.18-1.64-3.27-2.48l-1-.73c-1.57-1.2-3.12-2.43-4.68-3.67-.32-.23-.63-.47-.93-.73,0,0,0,0,0,0-.31-.23-.61-.47-.92-.72-.89-.7-1.78-1.41-2.66-2.13l-.95-.76-.06-.05-3.39-2.77c-.37-.29-.72-.59-1.09-.89l-.91-.76c-1-.81-2-1.63-2.92-2.45l-.12-.09-.6-.51-.31-.26c-.2-.17-.39-.34-.6-.5-1-.87-2-1.73-3-2.61-.16-.12-.31-.26-.47-.39l-.42-.37-.08-.06-.37-.34-1.24-1.07-.88-.77-1.61-1.41c-.47-.41-.94-.82-1.4-1.24l-.37-.33.54-.11,44.92-9.41-.44-1,0-.11,7.29-1.71,3.74-.88.41.31.05,0,16.89,12.8,10.44,7.9L536,766.71l.45.33,0,0,.3.22.55.41.59.45,9.22,7A5,5,0,0,1,545.54,784Z" transform="translate(-20.49 -15.96)" fill="#9c9ca1"/><path d="M545.54,784l-44.08,12.81c-.84-.55-1.69-1.1-2.53-1.67l-.71-.47q-9.68-6.42-19.1-13.3l-.09-.07q-2.88-2.12-5.76-4.27c-.24-.17-.47-.35-.71-.54-1.1-.81-2.18-1.64-3.27-2.48l-1-.73c-1.57-1.2-3.12-2.43-4.68-3.67-.32-.23-.63-.47-.93-.73,0,0,0,0,0,0-.31-.23-.61-.47-.92-.72-.89-.7-1.78-1.41-2.66-2.13l-.95-.76-.06-.05-3.39-2.77c-.37-.29-.72-.59-1.09-.89l-.91-.76c-1-.81-2-1.63-2.92-2.45l-.12-.09-.6-.51-.31-.26c-.2-.17-.39-.34-.6-.5-1-.87-2-1.73-3-2.61-.16-.12-.31-.26-.47-.39l-.42-.37-.08-.06-.37-.34-1.24-1.07-.88-.77-1.61-1.41c-.47-.41-.94-.82-1.4-1.24l-.37-.33.54-.11,44.92-9.41-.44-1,0-.11,7.29-1.71,3.74-.88.41.31.05,0,16.89,12.8,10.44,7.9L536,766.71l.45.33,0,0,.3.22.55.41.59.45,9.22,7A5,5,0,0,1,545.54,784Z" transform="translate(-20.49 -15.96)" opacity="0.1"/><path d="M547.5,784l-45.43,13.2c-.21-.12-.4-.25-.61-.39-.84-.55-1.69-1.1-2.53-1.67l-.71-.47q-9.68-6.42-19.1-13.3l-.09-.07q-2.88-2.12-5.76-4.27c-.24-.17-.47-.35-.71-.54-1.1-.81-2.18-1.64-3.27-2.48l-1-.73c-1.57-1.2-3.12-2.43-4.68-3.67-.32-.23-.63-.47-.93-.73,0,0,0,0,0,0-.31-.23-.61-.47-.92-.72-.89-.7-1.78-1.41-2.66-2.13l-.95-.76-.06-.05-3.39-2.77c-.37-.29-.72-.59-1.09-.89l-.91-.76c-1-.81-2-1.63-2.92-2.45l-.12-.09-.6-.51-.31-.26c-.2-.17-.39-.34-.6-.5-1-.87-2-1.73-3-2.61-.16-.12-.31-.26-.47-.39l-.42-.37-.08-.06-.37-.34-1.24-1.07-.88-.77-1.61-1.41c-.47-.41-.94-.82-1.4-1.24l2.12-.44,44.92-9.41-.48-1.14,5.6-1.31,3.94-.94,1.49-.34,17.34,13.14L524,756.1,538.37,767l0,0,1.6,1.22.58.44,8.52,6.45A5,5,0,0,1,547.5,784Z" transform="translate(-20.49 -15.96)" fill="#9c9ca1"/><path d="M507.88,791.79a.81.81,0,0,1-.59.86l-8.36,2.47-.71-.47q-9.68-6.42-19.1-13.3l-.09-.07q-2.88-2.12-5.76-4.27l13-3.38.23-.06.86-.22a.85.85,0,0,1,.78.19l19.48,17.67A.76.76,0,0,1,507.88,791.79Z" transform="translate(-20.49 -15.96)" opacity="0.1"/><path d="M508.26,791.68l-.38.11-9.66,2.86q-9.68-6.42-19.1-13.3l-.09-.07q-2.88-2.12-5.76-4.27c-.24-.17-.47-.35-.71-.54l14.81-3.84.3-.08.67-.17a.81.81,0,0,1,.77.19l19.48,17.67A.85.85,0,0,1,508.26,791.68Z" transform="translate(-20.49 -15.96)" fill="#939498"/><g opacity="0.1"><path d="M448.14,754.33l2.73,2.91a.33.33,0,0,0,.31.09l5.89-1.36a.33.33,0,0,0,.15-.56l-3.09-2.91a.36.36,0,0,0-.3-.08l-5.53,1.37A.33.33,0,0,0,448.14,754.33Z" transform="translate(-20.49 -15.96)"/><path d="M455.68,752.58l2.74,2.91a.33.33,0,0,0,.31.09l5.88-1.36a.32.32,0,0,0,.15-.55l-3.08-2.91a.3.3,0,0,0-.3-.08l-5.54,1.37A.32.32,0,0,0,455.68,752.58Z" transform="translate(-20.49 -15.96)"/><path d="M457.46,760.46a.29.29,0,0,1-.23.21l-2.54.59-1.09.25-.91-.76c-1-.81-2-1.63-2.92-2.45l-.12-.09,4.34-1.08a.3.3,0,0,1,.3.08l.94.88,1.76,1.66.39.37A.29.29,0,0,1,457.46,760.46Z" transform="translate(-20.49 -15.96)"/><path d="M463,750.73l2.87,3a.24.24,0,0,0,.23.07l6.08-1.41a.24.24,0,0,0,.11-.41L469,749a.25.25,0,0,0-.22-.06l-5.72,1.41A.24.24,0,0,0,463,750.73Z" transform="translate(-20.49 -15.96)"/><path d="M470.31,749.11l2.87,3a.25.25,0,0,0,.23.07l6.08-1.41a.24.24,0,0,0,.11-.41l-3.23-3a.23.23,0,0,0-.22-.06l-5.72,1.41A.25.25,0,0,0,470.31,749.11Z" transform="translate(-20.49 -15.96)"/><path d="M477.86,747.37l2.62,2.83a.22.22,0,0,0,.24.07l5.66-1.54a.25.25,0,0,0,.1-.42l-2.93-2.47a.3.3,0,0,0-.21-.05L478,747A.24.24,0,0,0,477.86,747.37Z" transform="translate(-20.49 -15.96)"/><path d="M485.77,750l2.62,2.83a.24.24,0,0,0,.24.07l5.67-1.54a.25.25,0,0,0,.09-.42l-2.93-2.47a.23.23,0,0,0-.21-.05l-5.35,1.18A.25.25,0,0,0,485.77,750Z" transform="translate(-20.49 -15.96)"/><path d="M484.82,755.15l2.48,2.69a.36.36,0,0,0,.33.09l5.46-1.49a.32.32,0,0,0,.12-.56l-2.77-2.34a.32.32,0,0,0-.28-.07L485,754.61A.33.33,0,0,0,484.82,755.15Z" transform="translate(-20.49 -15.96)"/><path d="M478.37,761.68l2.48,2.69a.32.32,0,0,0,.32.09l5.47-1.49a.32.32,0,0,0,.12-.56L484,760.07a.35.35,0,0,0-.28-.07l-5.17,1.14A.33.33,0,0,0,478.37,761.68Z" transform="translate(-20.49 -15.96)"/><path d="M470.62,763.71l2.48,2.69a.36.36,0,0,0,.33.09l5.46-1.49a.32.32,0,0,0,.12-.56l-2.77-2.34A.32.32,0,0,0,476,762l-5.17,1.14A.33.33,0,0,0,470.62,763.71Z" transform="translate(-20.49 -15.96)"/><path d="M485.67,759.77l2.48,2.69a.34.34,0,0,0,.33.09l5.46-1.49a.32.32,0,0,0,.12-.56l-2.77-2.34a.31.31,0,0,0-.28-.06l-5.17,1.14A.32.32,0,0,0,485.67,759.77Z" transform="translate(-20.49 -15.96)"/><path d="M484.4,765.57l3.75,3.37a.35.35,0,0,0,.31.07l5.42-1.54a.32.32,0,0,0,.13-.55l-4-3.54a.34.34,0,0,0-.32-.07L484.52,765A.33.33,0,0,0,484.4,765.57Z" transform="translate(-20.49 -15.96)"/><path d="M471.29,753.66l2.62,2.83a.22.22,0,0,0,.24.07l5.66-1.54a.24.24,0,0,0,.09-.42L477,752.13a.27.27,0,0,0-.21,0l-5.36,1.18A.24.24,0,0,0,471.29,753.66Z" transform="translate(-20.49 -15.96)"/><path d="M464,755.47l2.49,2.69a.32.32,0,0,0,.32.09l5.46-1.49a.32.32,0,0,0,.13-.56l-2.77-2.34a.36.36,0,0,0-.28-.07l-5.18,1.15A.32.32,0,0,0,464,755.47Z" transform="translate(-20.49 -15.96)"/><path d="M462.46,760.67l2.49,2.68a.32.32,0,0,0,.32.1l5.46-1.49a.33.33,0,0,0,.13-.57l-2.78-2.33a.31.31,0,0,0-.28-.07l-5.17,1.14A.33.33,0,0,0,462.46,760.67Z" transform="translate(-20.49 -15.96)"/><path d="M458.08,765.17l4.94-1.35a.33.33,0,0,0,.13-.56l-.39-.33-2.38-2a.32.32,0,0,0-.28-.08l-5,1.1-.18,0a.32.32,0,0,0-.24.41Z" transform="translate(-20.49 -15.96)"/><path d="M456.13,757.22l2.49,2.68a.33.33,0,0,0,.32.1l5.46-1.49a.32.32,0,0,0,.13-.56l-2.78-2.34a.3.3,0,0,0-.27-.07l-5.18,1.14A.33.33,0,0,0,456.13,757.22Z" transform="translate(-20.49 -15.96)"/><path d="M462.58,765.45l2.49,2.69a.32.32,0,0,0,.32.09l5.46-1.49a.32.32,0,0,0,.13-.56l-2.77-2.34a.31.31,0,0,0-.28-.06l-5.18,1.14A.32.32,0,0,0,462.58,765.45Z" transform="translate(-20.49 -15.96)"/><path d="M463.05,768.73l-.38.1c-.31-.23-.61-.47-.92-.72-.89-.7-1.78-1.41-2.66-2.13l1.13-.25a.37.37,0,0,1,.35.09l2.34,2,.29.24A.41.41,0,0,1,463.05,768.73Z" transform="translate(-20.49 -15.96)"/><path d="M478.75,751.8l2.62,2.83a.27.27,0,0,0,.24.07l5.67-1.55a.24.24,0,0,0,.09-.42l-2.93-2.46a.21.21,0,0,0-.2,0l-5.36,1.18A.25.25,0,0,0,478.75,751.8Z" transform="translate(-20.49 -15.96)"/><path d="M477.72,756.89l2.48,2.69a.33.33,0,0,0,.33.09l5.46-1.49a.32.32,0,0,0,.12-.56l-2.77-2.34a.35.35,0,0,0-.28-.07l-5.17,1.15A.32.32,0,0,0,477.72,756.89Z" transform="translate(-20.49 -15.96)"/><path d="M470.29,758.92l2.49,2.69a.32.32,0,0,0,.32.09l5.46-1.49a.32.32,0,0,0,.13-.56l-2.78-2.34a.33.33,0,0,0-.27-.07l-5.18,1.15A.32.32,0,0,0,470.29,758.92Z" transform="translate(-20.49 -15.96)"/><path d="M449.6,757.24a.31.31,0,0,1-.24.39l-.31.07-.31-.26c-.2-.17-.39-.34-.6-.5-1-.87-2-1.73-3-2.61l1-.24a.32.32,0,0,1,.3.07l2.7,2.55.39.37A.26.26,0,0,1,449.6,757.24Z" transform="translate(-20.49 -15.96)"/><path d="M447.5,753.22l-.83.2-2,.52-.42-.37-.08-.06-.37-.34-1.24-1.07,3.53-.86a.34.34,0,0,1,.31.09l.91,1,.37.39A.33.33,0,0,1,447.5,753.22Z" transform="translate(-20.49 -15.96)"/><path d="M447.81,750.88l6.13-1.5a.36.36,0,0,1,.32.09l1.28,1.35a.33.33,0,0,1-.16.54l-6.06,1.52a.31.31,0,0,1-.31-.08l-1.36-1.38A.32.32,0,0,1,447.81,750.88Z" transform="translate(-20.49 -15.96)"/><path d="M455.69,749.26l6.14-1.49a.33.33,0,0,1,.31.09l1.28,1.35a.33.33,0,0,1-.16.54l-6.06,1.52a.3.3,0,0,1-.31-.09l-1.36-1.37A.33.33,0,0,1,455.69,749.26Z" transform="translate(-20.49 -15.96)"/><path d="M463.15,747.47l6.33-1.54a.25.25,0,0,1,.23.07l1.42,1.49a.25.25,0,0,1-.12.4l-6.25,1.57a.25.25,0,0,1-.23-.07L463,747.88A.24.24,0,0,1,463.15,747.47Z" transform="translate(-20.49 -15.96)"/><path d="M470.7,745.86l6.33-1.54a.25.25,0,0,1,.23.07l1.41,1.48a.24.24,0,0,1-.11.4l-6.26,1.57a.24.24,0,0,1-.23-.06l-1.49-1.52A.24.24,0,0,1,470.7,745.86Z" transform="translate(-20.49 -15.96)"/><path d="M478.22,744.13l5.85-1.33a.24.24,0,0,1,.24.08l1.14,1.39a.25.25,0,0,1-.13.39l-5.5,1.45a.23.23,0,0,1-.23-.07l-1.49-1.51A.24.24,0,0,1,478.22,744.13Z" transform="translate(-20.49 -15.96)"/><path d="M485.4,742.49l5.86-1.33a.24.24,0,0,1,.24.08l1.13,1.39a.24.24,0,0,1-.13.38l-5.5,1.45a.22.22,0,0,1-.23-.06l-1.49-1.51A.24.24,0,0,1,485.4,742.49Z" transform="translate(-20.49 -15.96)"/><path d="M476.68,772.15,469.29,774l-1-.73c-1.57-1.2-3.12-2.43-4.68-3.67l8.79-2.24a.42.42,0,0,1,.39.1l3.76,3.75.28.27A.4.4,0,0,1,476.68,772.15Z" transform="translate(-20.49 -15.96)"/><path d="M474.27,767.68l3.88,3.92a.35.35,0,0,0,.32.08l8.12-2.17a.33.33,0,0,0,.15-.55l-4-3.94a.32.32,0,0,0-.31-.08l-8,2.2A.32.32,0,0,0,474.27,767.68Z" transform="translate(-20.49 -15.96)"/><path d="M493.89,765.23l1.76,1.87a.24.24,0,0,0,.24.06l6-1.61a.24.24,0,0,0,.1-.41l-2.14-2a.24.24,0,0,0-.23-.06L494,764.83A.25.25,0,0,0,493.89,765.23Z" transform="translate(-20.49 -15.96)"/><path d="M499,761.22l2.11,2.22a.27.27,0,0,0,.26.06l5.52-1.92a.23.23,0,0,0,.08-.4l-2.06-1.86a.24.24,0,0,0-.23-.06l-5.57,1.56A.25.25,0,0,0,499,761.22Z" transform="translate(-20.49 -15.96)"/><path d="M503.08,765.05l-1.51-1.23a.23.23,0,0,1,.07-.41l5.51-1.91a.23.23,0,0,1,.24,0l1.72,1.67a.25.25,0,0,1-.11.41l-5.7,1.47A.25.25,0,0,1,503.08,765.05Z" transform="translate(-20.49 -15.96)"/><path d="M508.73,761.66c.47.45,1.34,1.36,1.62,1.66a.24.24,0,0,0,.24.07l5.73-1.55a.24.24,0,0,0,.1-.41l-2-1.84a.3.3,0,0,0-.24-.05l-5.33,1.72A.24.24,0,0,0,508.73,761.66Z" transform="translate(-20.49 -15.96)"/><path d="M492.65,758l3.07,3a.23.23,0,0,0,.22.06l14.79-3.89a.24.24,0,0,0,.09-.42l-3.59-3a.25.25,0,0,0-.22,0l-14.26,3.9A.24.24,0,0,0,492.65,758Z" transform="translate(-20.49 -15.96)"/><path d="M491.64,753.47l3.17,2.81a.21.21,0,0,0,.21.06l11.13-2.63a.24.24,0,0,0,.1-.42l-3.65-3a.23.23,0,0,0-.21,0l-10.65,2.87A.24.24,0,0,0,491.64,753.47Z" transform="translate(-20.49 -15.96)"/><path d="M492.66,748.61l3,2.68a.21.21,0,0,0,.21.06l5.71-1.27a.24.24,0,0,0,.11-.42l-3.55-3.06a.22.22,0,0,0-.23-.05l-5.16,1.66A.23.23,0,0,0,492.66,748.61Z" transform="translate(-20.49 -15.96)"/><path d="M484.85,746l2.9,2.63a.21.21,0,0,0,.21.06L497,746.5a.24.24,0,0,0,.1-.42l-3.46-2.9a.25.25,0,0,0-.22,0l-8.5,2.41A.24.24,0,0,0,484.85,746Z" transform="translate(-20.49 -15.96)"/></g><path d="M448.14,753.35l2.73,2.91a.33.33,0,0,0,.31.1l5.89-1.37a.33.33,0,0,0,.15-.55l-3.09-2.91a.3.3,0,0,0-.3-.08l-5.53,1.37A.32.32,0,0,0,448.14,753.35Z" transform="translate(-20.49 -15.96)" fill="#464a5f"/><path d="M455.68,751.61l2.74,2.91a.33.33,0,0,0,.31.09l5.88-1.36a.32.32,0,0,0,.15-.55l-3.08-2.92a.32.32,0,0,0-.3-.07l-5.54,1.36A.33.33,0,0,0,455.68,751.61Z" transform="translate(-20.49 -15.96)" fill="#464a5f"/><path d="M457.23,759.7l-.24,0-4.3,1c-1-.81-2-1.63-2.92-2.45l-.12-.09-.6-.51-.31-.26.86-.2,1-.26,3.35-.83a.32.32,0,0,1,.3.09l.31.3,1.62,1.5,1.16,1.1A.33.33,0,0,1,457.23,759.7Z" transform="translate(-20.49 -15.96)" fill="#464a5f"/><path d="M463,749.76l2.87,3a.24.24,0,0,0,.23.07l6.08-1.41a.24.24,0,0,0,.11-.41L469,748a.23.23,0,0,0-.22-.06l-5.72,1.41A.24.24,0,0,0,463,749.76Z" transform="translate(-20.49 -15.96)" fill="#464a5f"/><path d="M470.31,748.14l2.87,3a.23.23,0,0,0,.23.07l6.08-1.4a.24.24,0,0,0,.11-.41l-3.23-3.05a.23.23,0,0,0-.22-.06l-5.72,1.41A.24.24,0,0,0,470.31,748.14Z" transform="translate(-20.49 -15.96)" fill="#464a5f"/><path d="M477.86,746.4l2.62,2.83a.24.24,0,0,0,.24.07l5.66-1.55a.24.24,0,0,0,.1-.41l-2.93-2.47a.23.23,0,0,0-.21,0L478,746A.25.25,0,0,0,477.86,746.4Z" transform="translate(-20.49 -15.96)" fill="#464a5f"/><path d="M485.77,749l2.62,2.83a.26.26,0,0,0,.24.07l5.67-1.55a.24.24,0,0,0,.09-.41l-2.93-2.47a.23.23,0,0,0-.21,0l-5.35,1.18A.25.25,0,0,0,485.77,749Z" transform="translate(-20.49 -15.96)" fill="#464a5f"/><path d="M484.82,754.18l2.48,2.68a.31.31,0,0,0,.33.09l5.46-1.49a.32.32,0,0,0,.12-.56l-2.77-2.33a.29.29,0,0,0-.28-.07L485,753.64A.32.32,0,0,0,484.82,754.18Z" transform="translate(-20.49 -15.96)" fill="#464a5f"/><path d="M478.37,760.71l2.48,2.68a.33.33,0,0,0,.32.1l5.47-1.49a.32.32,0,0,0,.12-.56L484,759.1a.32.32,0,0,0-.28-.07l-5.17,1.14A.32.32,0,0,0,478.37,760.71Z" transform="translate(-20.49 -15.96)" fill="#464a5f"/><path d="M470.62,762.74l2.48,2.68a.31.31,0,0,0,.33.09l5.46-1.48a.33.33,0,0,0,.12-.57l-2.77-2.33a.32.32,0,0,0-.28-.07l-5.17,1.14A.32.32,0,0,0,470.62,762.74Z" transform="translate(-20.49 -15.96)" fill="#464a5f"/><path d="M485.67,758.8l2.48,2.69a.34.34,0,0,0,.33.09l5.46-1.49a.32.32,0,0,0,.12-.56l-2.77-2.34a.35.35,0,0,0-.28-.07l-5.17,1.14A.33.33,0,0,0,485.67,758.8Z" transform="translate(-20.49 -15.96)" fill="#464a5f"/><path d="M484.4,764.6l3.75,3.36a.32.32,0,0,0,.31.07l5.42-1.53a.33.33,0,0,0,.13-.56l-4-3.54a.34.34,0,0,0-.32-.06l-5.13,1.71A.33.33,0,0,0,484.4,764.6Z" transform="translate(-20.49 -15.96)" fill="#464a5f"/><path d="M471.29,752.69l2.62,2.83a.24.24,0,0,0,.24.07l5.66-1.55a.23.23,0,0,0,.09-.41L477,751.16a.23.23,0,0,0-.21,0l-5.36,1.18A.24.24,0,0,0,471.29,752.69Z" transform="translate(-20.49 -15.96)" fill="#464a5f"/><path d="M464,754.5l2.49,2.69a.34.34,0,0,0,.32.09l5.46-1.49a.32.32,0,0,0,.13-.56l-2.77-2.34a.33.33,0,0,0-.28-.07L464.13,754A.33.33,0,0,0,464,754.5Z" transform="translate(-20.49 -15.96)" fill="#464a5f"/><path d="M462.46,759.69l2.49,2.69a.32.32,0,0,0,.32.09l5.46-1.49a.33.33,0,0,0,.13-.56l-2.78-2.34a.34.34,0,0,0-.28-.07l-5.17,1.15A.32.32,0,0,0,462.46,759.69Z" transform="translate(-20.49 -15.96)" fill="#464a5f"/><path d="M454.75,761.56l2.49,2.69a.34.34,0,0,0,.32.09l5.46-1.49a.32.32,0,0,0,.13-.56L460.38,760a.32.32,0,0,0-.28-.07L454.92,761A.33.33,0,0,0,454.75,761.56Z" transform="translate(-20.49 -15.96)" fill="#464a5f"/><path d="M456.13,756.24l2.49,2.69a.3.3,0,0,0,.32.09l5.46-1.49a.32.32,0,0,0,.13-.56l-2.78-2.34a.29.29,0,0,0-.27-.06l-5.18,1.14A.32.32,0,0,0,456.13,756.24Z" transform="translate(-20.49 -15.96)" fill="#464a5f"/><path d="M462.58,764.48l2.49,2.69a.32.32,0,0,0,.32.09l5.46-1.49a.32.32,0,0,0,.13-.56l-2.77-2.34a.35.35,0,0,0-.28-.07l-5.18,1.14A.33.33,0,0,0,462.58,764.48Z" transform="translate(-20.49 -15.96)" fill="#464a5f"/><path d="M463.05,767.75l-.14,0-1.16.32c-.89-.7-1.78-1.41-2.66-2.13l-.95-.76,2.08-.47a.47.47,0,0,1,.35.09l2.63,2.22A.4.4,0,0,1,463.05,767.75Z" transform="translate(-20.49 -15.96)" fill="#464a5f"/><path d="M478.75,750.82l2.62,2.83a.22.22,0,0,0,.24.07l5.67-1.54a.24.24,0,0,0,.09-.42l-2.93-2.47a.24.24,0,0,0-.2,0l-5.36,1.18A.25.25,0,0,0,478.75,750.82Z" transform="translate(-20.49 -15.96)" fill="#464a5f"/><path d="M477.72,755.92l2.48,2.69a.36.36,0,0,0,.33.09l5.46-1.49a.32.32,0,0,0,.12-.56l-2.77-2.34a.32.32,0,0,0-.28-.07l-5.17,1.14A.33.33,0,0,0,477.72,755.92Z" transform="translate(-20.49 -15.96)" fill="#464a5f"/><path d="M470.29,758l2.49,2.68a.32.32,0,0,0,.32.1l5.46-1.49a.32.32,0,0,0,.13-.56l-2.78-2.34a.3.3,0,0,0-.27-.07l-5.18,1.14A.33.33,0,0,0,470.29,758Z" transform="translate(-20.49 -15.96)" fill="#464a5f"/><path d="M449.36,756.66l-.24.05-1,.23c-1-.87-2-1.73-3-2.61-.16-.12-.31-.26-.47-.39l-.42-.37,1.89-.46a.32.32,0,0,1,.3.09l.25.22,2.84,2.68A.33.33,0,0,1,449.36,756.66Z" transform="translate(-20.49 -15.96)" fill="#464a5f"/><path d="M447.5,752.24l-.21,0-3.51.88-1.24-1.07-.88-.77,4.41-1.07a.35.35,0,0,1,.31.1l1.28,1.34A.33.33,0,0,1,447.5,752.24Z" transform="translate(-20.49 -15.96)" fill="#464a5f"/><path d="M447.81,749.9l6.13-1.49a.34.34,0,0,1,.32.09l1.28,1.35a.33.33,0,0,1-.16.54l-6.06,1.52a.32.32,0,0,1-.31-.09l-1.36-1.37A.33.33,0,0,1,447.81,749.9Z" transform="translate(-20.49 -15.96)" fill="#464a5f"/><path d="M455.69,748.29l6.14-1.49a.3.3,0,0,1,.31.09l1.28,1.35a.32.32,0,0,1-.16.53l-6.06,1.53a.33.33,0,0,1-.31-.09l-1.36-1.38A.32.32,0,0,1,455.69,748.29Z" transform="translate(-20.49 -15.96)" fill="#464a5f"/><path d="M463.15,746.5l6.33-1.54a.23.23,0,0,1,.23.07l1.42,1.48a.24.24,0,0,1-.12.4l-6.25,1.57a.24.24,0,0,1-.23-.06L463,746.9A.23.23,0,0,1,463.15,746.5Z" transform="translate(-20.49 -15.96)" fill="#464a5f"/><path d="M470.7,744.89l6.33-1.54a.24.24,0,0,1,.23.06l1.41,1.49a.24.24,0,0,1-.11.4l-6.26,1.57a.24.24,0,0,1-.23-.06l-1.49-1.52A.24.24,0,0,1,470.7,744.89Z" transform="translate(-20.49 -15.96)" fill="#464a5f"/><path d="M478.22,743.16l5.85-1.33a.22.22,0,0,1,.24.08l1.14,1.39a.24.24,0,0,1-.13.38l-5.5,1.45a.22.22,0,0,1-.23-.06l-1.49-1.51A.24.24,0,0,1,478.22,743.16Z" transform="translate(-20.49 -15.96)" fill="#464a5f"/><path d="M485.4,741.51l5.86-1.33a.24.24,0,0,1,.24.08l1.13,1.39a.25.25,0,0,1-.13.39l-5.5,1.45a.24.24,0,0,1-.23-.06l-1.49-1.51A.25.25,0,0,1,485.4,741.51Z" transform="translate(-20.49 -15.96)" fill="#464a5f"/><path d="M476.68,771.17l-.1,0-8.26,2.06c-1.57-1.2-3.12-2.43-4.68-3.67-.32-.23-.63-.47-.93-.73l2.51-.63,3.47-.9,3.74-1a.39.39,0,0,1,.39.09l4,4A.39.39,0,0,1,476.68,771.17Z" transform="translate(-20.49 -15.96)" fill="#464a5f"/><path d="M474.27,766.71l3.88,3.92a.35.35,0,0,0,.32.08l8.12-2.18a.33.33,0,0,0,.15-.54l-4-4a.32.32,0,0,0-.31-.08l-8,2.21A.32.32,0,0,0,474.27,766.71Z" transform="translate(-20.49 -15.96)" fill="#464a5f"/><path d="M493.89,764.25l1.76,1.87a.24.24,0,0,0,.24.07l6-1.62a.23.23,0,0,0,.1-.4l-2.14-2a.22.22,0,0,0-.23,0L494,763.86A.24.24,0,0,0,493.89,764.25Z" transform="translate(-20.49 -15.96)" fill="#464a5f"/><path d="M499,760.25l2.11,2.21a.25.25,0,0,0,.26.06l5.52-1.91a.24.24,0,0,0,.08-.41l-2.06-1.86a.27.27,0,0,0-.23-.05l-5.57,1.56A.25.25,0,0,0,499,760.25Z" transform="translate(-20.49 -15.96)" fill="#464a5f"/><path d="M503.08,764.08l-1.51-1.23a.24.24,0,0,1,.07-.42l5.51-1.91a.22.22,0,0,1,.24.06l1.72,1.67a.24.24,0,0,1-.11.4l-5.7,1.48A.25.25,0,0,1,503.08,764.08Z" transform="translate(-20.49 -15.96)" fill="#464a5f"/><path d="M508.73,760.68c.47.46,1.34,1.37,1.62,1.67a.26.26,0,0,0,.24.07l5.73-1.56a.24.24,0,0,0,.1-.41l-2-1.83a.24.24,0,0,0-.24,0l-5.33,1.71A.24.24,0,0,0,508.73,760.68Z" transform="translate(-20.49 -15.96)" fill="#464a5f"/><path d="M492.65,757.06l3.07,3a.25.25,0,0,0,.22.06l14.79-3.9a.24.24,0,0,0,.09-.42l-3.59-3a.25.25,0,0,0-.22,0l-14.26,3.9A.24.24,0,0,0,492.65,757.06Z" transform="translate(-20.49 -15.96)" fill="#464a5f"/><path d="M491.64,752.49l3.17,2.82a.23.23,0,0,0,.21.05l11.13-2.63a.24.24,0,0,0,.1-.41l-3.65-3.05a.23.23,0,0,0-.21,0l-10.65,2.86A.24.24,0,0,0,491.64,752.49Z" transform="translate(-20.49 -15.96)" fill="#464a5f"/><path d="M492.66,747.64l3,2.68a.27.27,0,0,0,.21.06l5.71-1.27a.24.24,0,0,0,.11-.42l-3.55-3.07a.24.24,0,0,0-.23,0l-5.16,1.65A.24.24,0,0,0,492.66,747.64Z" transform="translate(-20.49 -15.96)" fill="#464a5f"/><path d="M484.85,745l2.9,2.64a.27.27,0,0,0,.21.06l9.06-2.15a.24.24,0,0,0,.1-.42l-3.46-2.89a.25.25,0,0,0-.22-.05l-8.5,2.4A.24.24,0,0,0,484.85,745Z" transform="translate(-20.49 -15.96)" fill="#464a5f"/><path d="M730,460.4l-1.64-.13A13.09,13.09,0,0,0,730,460.4Z" transform="translate(-20.49 -15.96)" fill="url(#1adb2931-c039-4baa-8c46-5924ba71152d)"/><path d="M772.7,455.27c-.31-.29-.61-.58-.9-.88-.46-.46-.91-.95-1.31-1.43-.23-.26-.45-.52-.66-.79l-.36-.46,0,0c-.17-.2-.32-.42-.47-.63a.61.61,0,0,1-.1-.14,2.43,2.43,0,0,0-.14-.2,22.82,22.82,0,0,1-1.24-1.94h-.09c.38.66.77,1.3,1.21,1.92.1.14.2.27.29.41a23,23,0,0,0,1.45,1.84c.15.19.31.37.48.56a8.09,8.09,0,0,0,.7.75,2.69,2.69,0,0,0,.29.3c.24.25.48.5.74.73l.43.4c.5.46,1,.9,1.55,1.33l.12-.05C774,456.42,773.32,455.85,772.7,455.27ZM743,471.1l-3.67.86a17.26,17.26,0,0,0-6.88,3l.62-.33a3.74,3.74,0,0,1,.45-.22c.22-.1.45-.21.68-.3s.57-.22.85-.32l.64-.22c.22-.07.45-.15.68-.2s.47-.14.7-.2l.71-.19,1.31-.31c1.24-.29,2.5-.58,3.74-.9a.47.47,0,0,0,.17,0l1-.28c.15,0,.29-.07.43-.12.32-.09.64-.17,1-.27l1-.35c.43-.14.86-.3,1.28-.46l.47-.19a3.32,3.32,0,0,0,.47-.2,2.48,2.48,0,0,0,.37-.17,15.36,15.36,0,0,0,1.57-.79c.26-.14.52-.29.77-.45l.74-.49a3.18,3.18,0,0,0,.37-.27A34.56,34.56,0,0,1,743,471.1Zm-5-11s0,0-.06,0a14.46,14.46,0,0,1-7.92,2.3c1.14.09,2.28.18,3.43.23h0c3.19.17,6.39.23,9.58.14v-7.19A21.75,21.75,0,0,1,737.93,460.15Zm34.77-4.88c-.31-.29-.61-.58-.9-.88-.46-.46-.91-.95-1.31-1.43-.23-.26-.45-.52-.66-.79l-.36-.46,0,0c-.17-.2-.32-.42-.47-.63a.61.61,0,0,1-.1-.14,2.43,2.43,0,0,0-.14-.2,22.82,22.82,0,0,1-1.24-1.94h-.09c.38.66.77,1.3,1.21,1.92.1.14.2.27.29.41a23,23,0,0,0,1.45,1.84c.15.19.31.37.48.56a8.09,8.09,0,0,0,.7.75,2.69,2.69,0,0,0,.29.3c.24.25.48.5.74.73l.43.4c.5.46,1,.9,1.55,1.33l.12-.05C774,456.42,773.32,455.85,772.7,455.27ZM743,471.1l-3.67.86a17.26,17.26,0,0,0-6.88,3l.62-.33a3.74,3.74,0,0,1,.45-.22c.22-.1.45-.21.68-.3s.57-.22.85-.32l.64-.22c.22-.07.45-.15.68-.2s.47-.14.7-.2l.71-.19,1.31-.31c1.24-.29,2.5-.58,3.74-.9a.47.47,0,0,0,.17,0l1-.28c.15,0,.29-.07.43-.12.32-.09.64-.17,1-.27l1-.35c.43-.14.86-.3,1.28-.46l.47-.19a3.32,3.32,0,0,0,.47-.2,2.48,2.48,0,0,0,.37-.17,15.36,15.36,0,0,0,1.57-.79c.26-.14.52-.29.77-.45l.74-.49a3.18,3.18,0,0,0,.37-.27A34.56,34.56,0,0,1,743,471.1Zm-5-11s0,0-.06,0a14.46,14.46,0,0,1-7.92,2.3c1.14.09,2.28.18,3.43.23h0c3.19.17,6.39.23,9.58.14v-7.19A21.75,21.75,0,0,1,737.93,460.15Zm34.77-4.88c-.31-.29-.61-.58-.9-.88-.46-.46-.91-.95-1.31-1.43-.23-.26-.45-.52-.66-.79l-.36-.46,0,0c-.17-.2-.32-.42-.47-.63a.61.61,0,0,1-.1-.14,2.43,2.43,0,0,0-.14-.2,22.82,22.82,0,0,1-1.24-1.94h-.09c.38.66.77,1.3,1.21,1.92.1.14.2.27.29.41a23,23,0,0,0,1.45,1.84c.15.19.31.37.48.56a8.09,8.09,0,0,0,.7.75,2.69,2.69,0,0,0,.29.3c.24.25.48.5.74.73l.43.4c.5.46,1,.9,1.55,1.33l.12-.05C774,456.42,773.32,455.85,772.7,455.27ZM743,471.1l-3.67.86a17.26,17.26,0,0,0-6.88,3l.62-.33a3.74,3.74,0,0,1,.45-.22c.22-.1.45-.21.68-.3s.57-.22.85-.32l.64-.22c.22-.07.45-.15.68-.2s.47-.14.7-.2l.71-.19,1.31-.31c1.24-.29,2.5-.58,3.74-.9a.47.47,0,0,0,.17,0l1-.28c.15,0,.29-.07.43-.12.32-.09.64-.17,1-.27l1-.35c.43-.14.86-.3,1.28-.46l.47-.19a3.32,3.32,0,0,0,.47-.2,2.48,2.48,0,0,0,.37-.17,15.36,15.36,0,0,0,1.57-.79c.26-.14.52-.29.77-.45l.74-.49a3.18,3.18,0,0,0,.37-.27A34.56,34.56,0,0,1,743,471.1Zm-5-11s0,0-.06,0a14.46,14.46,0,0,1-7.92,2.3c1.14.09,2.28.18,3.43.23h0c3.19.17,6.39.23,9.58.14v-7.19A21.75,21.75,0,0,1,737.93,460.15Zm34.77-4.88c-.31-.29-.61-.58-.9-.88-.46-.46-.91-.95-1.31-1.43-.23-.26-.45-.52-.66-.79l-.36-.46,0,0c-.17-.2-.32-.42-.47-.63a.61.61,0,0,1-.1-.14,2.43,2.43,0,0,0-.14-.2,22.82,22.82,0,0,1-1.24-1.94h-.09c.38.66.77,1.3,1.21,1.92.1.14.2.27.29.41a23,23,0,0,0,1.45,1.84c.15.19.31.37.48.56a8.09,8.09,0,0,0,.7.75,2.69,2.69,0,0,0,.29.3c.24.25.48.5.74.73l.43.4c.5.46,1,.9,1.55,1.33l.12-.05C774,456.42,773.32,455.85,772.7,455.27ZM743,471.1l-3.67.86a17.26,17.26,0,0,0-6.88,3l.62-.33a3.74,3.74,0,0,1,.45-.22c.22-.1.45-.21.68-.3s.57-.22.85-.32l.64-.22c.22-.07.45-.15.68-.2s.47-.14.7-.2l.71-.19,1.31-.31c1.24-.29,2.5-.58,3.74-.9a.47.47,0,0,0,.17,0l1-.28c.15,0,.29-.07.43-.12.32-.09.64-.17,1-.27l1-.35c.43-.14.86-.3,1.28-.46l.47-.19a3.32,3.32,0,0,0,.47-.2,2.48,2.48,0,0,0,.37-.17,15.36,15.36,0,0,0,1.57-.79c.26-.14.52-.29.77-.45l.74-.49a3.18,3.18,0,0,0,.37-.27A34.56,34.56,0,0,1,743,471.1Zm-5-11s0,0-.06,0a14.46,14.46,0,0,1-7.92,2.3c1.14.09,2.28.18,3.43.23h0c3.19.17,6.39.23,9.58.14v-7.19A21.75,21.75,0,0,1,737.93,460.15Zm34.77-4.88c-.31-.29-.61-.58-.9-.88-.46-.46-.91-.95-1.31-1.43-.23-.26-.45-.52-.66-.79a5.19,5.19,0,0,1-.36-.46l0,0c-.17-.2-.32-.42-.47-.63a.61.61,0,0,1-.1-.14l-.14-.2a22.82,22.82,0,0,1-1.24-1.94h-.09c.38.66.77,1.3,1.21,1.92.1.14.2.27.29.41a23,23,0,0,0,1.45,1.84c.15.19.31.37.48.56a8.09,8.09,0,0,0,.7.75,2.69,2.69,0,0,0,.29.3c.24.25.48.5.74.73l.43.4c.5.46,1,.9,1.55,1.33l.12-.05C774,456.42,773.32,455.85,772.7,455.27ZM739.3,472a17.26,17.26,0,0,0-6.88,3l.62-.33a3.74,3.74,0,0,1,.45-.22c.22-.1.45-.21.68-.3s.56-.22.85-.32l.64-.22c.22-.07.45-.15.68-.2s.47-.14.7-.2l.71-.19,1.31-.31c1.23-.29,2.49-.58,3.74-.9a.47.47,0,0,0,.17,0l1-.28c.15,0,.29-.07.43-.12.32-.09.64-.17,1-.27l1-.35c.43-.14.86-.3,1.28-.46l.47-.19a3.32,3.32,0,0,0,.47-.2,2.48,2.48,0,0,0,.37-.17,15.36,15.36,0,0,0,1.57-.79c.26-.14.52-.29.77-.45l.74-.49a3.18,3.18,0,0,0,.37-.27,34.56,34.56,0,0,1-9.5,3.38Zm-5.91-9.24c3.19.17,6.39.23,9.58.14v-7.19a21.75,21.75,0,0,1-5,4.48s0,0-.06,0a14.46,14.46,0,0,1-7.92,2.3c1.14.09,2.28.18,3.43.23Zm252,285.52a12,12,0,0,0-3.56-6c-4.86-4.44-13.47-4.85-16-10.93-.92-2.21-.74-4.71-.56-7.11q1.17-14.68,2.33-29.38a30.71,30.71,0,0,0-.09-8.35c-.72-3.71-2.78-7-4.62-10.3a101.22,101.22,0,0,1-6.67-14.61c-.41-1.12-.8-2.25-1.18-3.38a105.53,105.53,0,0,1-5.16-30A101.91,101.91,0,0,1,951,610.57c1.89-2,3-3.9,4.9-5.92.53-.56,1-1.14,1.57-1.74a31.19,31.19,0,0,0,2.15-2.74c1.61-2.35,2.7-4.93,2.37-7.72a11.5,11.5,0,0,0-2.37-5.38c-2.19-3-5.22-5.7-6.36-9.24a13.69,13.69,0,0,1-.38-6c.06-.52.14-1,.24-1.53,1.14-6.18,3.95-12.54,2-18.51-.56-1.68-1.48-3.23-2.11-4.89,0-.12-.09-.24-.13-.36-3.25-9.23,2.72-19.24,2.48-29.08a10.86,10.86,0,0,0-.21-2,5.48,5.48,0,0,0-1.74-3.3,8.14,8.14,0,0,0-3.79-1.46l-4.49-.91a5.16,5.16,0,0,0-2-.14,3.44,3.44,0,0,0-1.45.73,174.93,174.93,0,0,0-2.88-20.21c-1.82-8.52-4.6-16.67-9.21-23.86a48,48,0,0,0-3.5-4.85c-.68-.83-1.38-1.62-2.11-2.4-10.94-11.83-26.69-17.93-41.44-25.29-2.92-1.46-5.81-3-8.6-4.57-1.77-1-3.51-2.07-5.26-3.11l-1.26-.73C878.08,416,892,409.65,900.7,398.45c.53-.67,1-1.36,1.52-2.07,4.58-6.71,6.93-14.69,8.33-22.69,4.21-24.07-.83-51.16-18.86-67.71-7.85-7.2-17.6-12-26.19-18.28-4.91-3.6-9.44-7.7-14.23-11.45-1.29-1-2.61-2-4-3a77.68,77.68,0,0,0-26.13-11.88,79,79,0,0,0-38.8.07,20.73,20.73,0,0,0-2.68.82.84.84,0,0,1,0-.17,9.19,9.19,0,0,0-3.81,2.47l-.2.25-.22.3h0a18.11,18.11,0,0,0-2.12,5.63,40.73,40.73,0,0,1-2.45,6.5s0,0,0,0c-.18.39-.37.78-.56,1.16.06-.09.14-.17.2-.25a43.68,43.68,0,0,1-10.41,13.37s0,0,0,0a42.11,42.11,0,0,1-13.89,8.07c-1.06.37-2.15.7-3.27,1-5.28,1.55-11,2.86-15.27,5.58a.86.86,0,0,0,0-.16A15.43,15.43,0,0,0,724,309.3s0,0,0,0q-.22.26-.42.51l0,0a13.27,13.27,0,0,0-1.5,2.54,13.81,13.81,0,0,0-1.14,5.73,21.92,21.92,0,0,0,1.92,8.49h0c.11.25.21.49.33.74a24.54,24.54,0,0,0-.88,2.44.3.3,0,0,0,0,.1s0,0,0,0c-3.44,11.9,3.26,25.52,1.69,38.27-.56,4.49-2.15,9-1.49,13.45,0,.3.1.59.16.87s.11.48.18.72c-.42.69-.83,1.4-1.22,2.11a47.07,47.07,0,0,0-5.42,16.2c-.35,2.61-.48,5.28-.76,7.9h0a30.79,30.79,0,0,1-1.61,7.69,22.06,22.06,0,0,1-.89,2.06c-.29.6-.6,1.19-.92,1.77-1.3,2.37-2.81,4.63-4,7.09-2,4.34-2.79,9.11-3.89,13.76a134.13,134.13,0,0,1-4.81,15.66c-.95,2.6-2.6,5.6-3.91,8.58-.26,0-.53-.06-.79-.07-2.21-.21-4.41-.37-6.64-.5a9,9,0,0,1,.15,1.16,12,12,0,0,1-2.82,8.17,14.9,14.9,0,0,1-2.71,2.61.34.34,0,0,1-.08.09,26.47,26.47,0,0,1-5.29,3.1c-2.54,1.14-5.35,2.12-7.22,4.08h0a7.7,7.7,0,0,0-.81,1c-4.15,6.16,2.83,15-.46,21.67-1,2.06-2.87,3.53-4.64,5a.43.43,0,0,0-.1.09,13.84,13.84,0,0,0-3.54,4.1c-2.74,5.46,1.51,12.18-.17,18-1.06,3.71-4.32,6.42-5.83,10-1.26,3-1.2,6.31-1.13,9.53.1,4.19.25,8.55,2.24,12.24,1.81,3.36,5,5.78,8.15,7.86.81.53,1.61,1,2.44,1.53-.64.07-1.28.17-1.91.28a24.61,24.61,0,0,0-10.5,4.43l-.05,0-.21.14-.72.59c-6.81,5.79-9.31,15-13.63,22.83a76.07,76.07,0,0,1-4.45,7c-1.41,2-2.87,3.94-4.3,5.91a373.41,373.41,0,0,0-25.56,41.16c-.08.14-.15.28-.23.41-6.14,11.26-11.92,22.71-17.7,34.15a24.11,24.11,0,0,0-2.71,7.22c-.24,1.84-.08,3.76-.73,5.49a16.17,16.17,0,0,1-2.65,4,46.78,46.78,0,0,0-3.82,6.34l-7.58,14.17c-3,5.67-6.11,12.07-6.7,18.3a18.81,18.81,0,0,0,.63,7.32,16.45,16.45,0,0,0,1,2.59,2.82,2.82,0,0,0,1.14,1.37,1.57,1.57,0,0,0,1.2.06h0a3.6,3.6,0,0,0,1.62-1.39,7.23,7.23,0,0,0,.61-1L569,757c-.05.41-.11.82-.16,1.23h0c-.05.39-.1.77-.14,1.16h0c-.18,1.59-.35,3.18-.55,4.77a81.29,81.29,0,0,1-1.42,8c-.16,0-.31,0-.47-.06h0a263.06,263.06,0,0,1-26.2-3.89c-.89-.17-1.78-.36-2.66-.55-.66-.13-1.31-.27-2-.42-.39-.07-.78-.16-1.17-.25h4.42l-.28,0-2.34-.3a129.74,129.74,0,0,0-38.39,1.3,23.81,23.81,0,0,0-6,1.72,18.87,18.87,0,0,0-4.26,2.9c-.37.32-.73.65-1.1,1s-.82.76-1.21,1.15a58,58,0,0,0-6,6.5l.09.07q9.42,6.87,19.1,13.3l.71.47c.84.57,1.69,1.12,2.53,1.67.21.14.4.27.61.39,2.48,1.63,5,3.23,7.49,4.81q8.43,5.31,17,10.27,10.38,6,21,11.53l3.87,2c4.8,2.45,9.61,4.81,14.47,7.1q15.81,7.5,32,13.9l.1,0c4.74-.65,9.49-1.44,14.21-2.23a20.12,20.12,0,0,0,2.16-.43,8.71,8.71,0,0,0,2-.79c.31-.19.6-.39.88-.6,1.93-1.57,2.93-4.13,3.76-6.54a23.59,23.59,0,0,0,1.23-4.7,9.53,9.53,0,0,0,.08-1.6,10.08,10.08,0,0,0-.22-1.76c1.69-.66,3.36-1.4,5-2.22a78.56,78.56,0,0,1,7.4-3.56,31.8,31.8,0,0,1,7.45-1.69h.11c2.33-.27,4.69-.38,7.06-.46l1.11,0,1.46-.06,1.11,0,0,0a25.62,25.62,0,0,1,3,2.74c1.47,1.71,2.45,3.87,4.26,5.23a13.23,13.23,0,0,0,4.22,1.8c4.85,1.44,10.12,2.83,15.08,2.64h0a17.48,17.48,0,0,0,8.1-2.17c2.71-1.55,5-4,8-4.66,2.31-.51,5.37-.24,6.37-2.38a23.66,23.66,0,0,0,.6-2.55c.68-2,2.88-2.75,5.11-3h.05c.59-.07,1.19-.1,1.75-.11,9.45-.24,19.1-.28,28.6-1,.51,0,1-.08,1.5-.12,2-.15,4-.35,6-.58,14.18-1.68,28.45-3.37,42.21-7.21h0l.29-.08,1.09-.31.11,0c6.51,3.8,13.16,7.45,20.39,9.62,10.9,3.27,22.51,3,33.92,2.41l13-.65h0l1.51-.08.74,0a59.83,59.83,0,0,0,21.47,7,82.63,82.63,0,0,0,12.86.62h.09c12-.3,24-2.79,35.86-5.28,6.08-1.28,12.43-2.68,17.16-6.71,3.51-3,5.78-7.09,8-11.11q5.52-10.14,11-20.27h0l1.48-2.69c.29.5.58,1,.87,1.53l1,1.76a69.47,69.47,0,0,0,4.81-5.36,75.38,75.38,0,0,0,8.38-12.5C984.83,761.11,986.86,754,985.37,748.24Zm-290-165.08a93.89,93.89,0,0,0,17.54-3.86c.84-.24,1.68-.5,2.51-.75l26.71-8,.87-.26.85-.26a.86.86,0,0,0,.1.16l.06.12a57.36,57.36,0,0,1,3.76,9.89,224.15,224.15,0,0,1,9.48,58.37,12.83,12.83,0,0,1-.24,2.8c-.06.25-.13.5-.2.75a2.84,2.84,0,0,1-.24-.26l-.07.16-.52-.55c-.15-.17-.31-.33-.48-.49q-6.09-6.4-12.5-12.52c-5.33-5.16-10.79-10.22-16.22-15.27-4.85-4.5-9.32-9.52-13.87-14.38-5.24-5.61-10.6-11-16.77-15.11h0ZM737.47,436c.49-.8,1-1.61,1.56-2.38.32-.46.65-.91,1-1.34l2.94.94L748.7,435l1.39.45.14,0c0,.4-.06.78-.09,1.18a41.23,41.23,0,0,1-1.51,8.3A29.92,29.92,0,0,1,743,455.67a21.75,21.75,0,0,1-5,4.48s0,0-.06,0a14.46,14.46,0,0,1-7.92,2.3c1.14.09,2.28.18,3.43.23h0c3.19.17,6.39.23,9.58.14a117.83,117.83,0,0,0,18.46-1.94,62.08,62.08,0,0,0,11.7-3.3c.47-.19,1-.39,1.41-.61l.12-.05.48-.22a1.53,1.53,0,0,0,.16.13A29.14,29.14,0,0,0,778,459l-.25.16-.12.07-.17.11a7.44,7.44,0,0,0-2.26,0,8.42,8.42,0,0,0-1.89.46c-2.37.88-4.49,2.42-7,2.94s-5,0-7.36.8a10.68,10.68,0,0,0-2.87,1.61l0,0c-.78.59-1.55,1.2-2.35,1.76-.4.28-.81.53-1.23.78h0a34.56,34.56,0,0,1-9.5,3.38l-3.67.86a17.26,17.26,0,0,0-6.88,3,6.56,6.56,0,0,0-2.25,3.36,5.71,5.71,0,0,0-.19,1.42.06.06,0,0,1,0,0,14.85,14.85,0,0,1-.08-2.67s0,0,0,0a5.63,5.63,0,0,0-.75-3.62,6.36,6.36,0,0,0-3.69-2l-1.72-.43C728.31,459.34,731,446.79,737.47,436ZM699.39,762.6l-12,4.21a27.32,27.32,0,0,1-4.16,1.13h0c-3,.53-6,.32-7.79-1.94-.55-.68-.91-1.48-1.4-2.2-1.88-2.79-5.73-3.69-8.89-2.7h0a6.9,6.9,0,0,0-3.7,2.64c-1.75,2.57-2.11,6.36-4.91,7.71a5.11,5.11,0,0,1-1.62.47h-.06c-.51.07-1,.1-1.52.15a25.79,25.79,0,0,0-4.54.68l-.09,0a10.47,10.47,0,0,0-4.58,2.37c-2.17,2-3,5-3.14,8.06l-.1,0-.11,0-.77.18c-.59.13-1.18.28-1.75.43l-1,.26c-1.14.31-2.23.6-3.2.84l0,0,.22-.32a3.13,3.13,0,0,0,.63-1.89c-.12-1.48-1.81-2.23-3.23-2.66-3-.91-6.07-1.71-9.15-2.43a122.33,122.33,0,0,0,10.21-9.23c2.14-2.17,4.33-4.75,4.23-7.81a10.57,10.57,0,0,0-1.85-5c-1.13-1.88-2.37-3.72-2.6-5.84a7.11,7.11,0,0,1,0-1.53,14.37,14.37,0,0,1,1.59-4.7,75,75,0,0,1,17.07-22.69c6.62-6,14.36-10.82,20-17.71A41.14,41.14,0,0,0,680.44,676c0-.8-.07-1.59-.15-2.39C697.37,697,709.45,724,725,748.24l.6.93c.08.11.14.23.22.34.36.57.74,1.13,1.13,1.69l.21.33-1.28.61,0,0C722,754,718,755.71,714,757.27,709.18,759.15,704.28,760.88,699.39,762.6Zm38.54-302.45s0,0-.06,0a14.46,14.46,0,0,1-7.92,2.3c1.14.09,2.28.18,3.43.23h0c3.19.17,6.39.23,9.58.14v-7.19A21.75,21.75,0,0,1,737.93,460.15Zm5,11-3.67.86a17.26,17.26,0,0,0-6.88,3l.62-.33a3.74,3.74,0,0,1,.45-.22c.22-.1.45-.21.68-.3s.57-.22.85-.32l.64-.22c.22-.07.45-.15.68-.2s.47-.14.7-.2l.71-.19,1.31-.31c1.24-.29,2.5-.58,3.74-.9a.47.47,0,0,0,.17,0l1-.28c.15,0,.29-.07.43-.12.32-.09.64-.17,1-.27l1-.35c.43-.14.86-.3,1.28-.46l.47-.19a3.32,3.32,0,0,0,.47-.2,2.48,2.48,0,0,0,.37-.17,15.36,15.36,0,0,0,1.57-.79c.26-.14.52-.29.77-.45l.74-.49a3.18,3.18,0,0,0,.37-.27A34.56,34.56,0,0,1,743,471.1Zm29.73-15.83c-.31-.29-.61-.58-.9-.88-.46-.46-.91-.95-1.31-1.43-.23-.26-.45-.52-.66-.79l-.36-.46,0,0c-.17-.2-.32-.42-.47-.63a.61.61,0,0,1-.1-.14,2.43,2.43,0,0,0-.14-.2,22.82,22.82,0,0,1-1.24-1.94h-.09c.38.66.77,1.3,1.21,1.92.1.14.2.27.29.41a23,23,0,0,0,1.45,1.84c.15.19.31.37.48.56a8.09,8.09,0,0,0,.7.75,2.69,2.69,0,0,0,.29.3c.24.25.48.5.74.73l.43.4c.5.46,1,.9,1.55,1.33l.12-.05C774,456.42,773.32,455.85,772.7,455.27Zm-34.77,4.88s0,0-.06,0a14.46,14.46,0,0,1-7.92,2.3c1.14.09,2.28.18,3.43.23h0c3.19.17,6.39.23,9.58.14v-7.19A21.75,21.75,0,0,1,737.93,460.15Zm5,11-3.67.86a17.26,17.26,0,0,0-6.88,3l.62-.33a3.74,3.74,0,0,1,.45-.22c.22-.1.45-.21.68-.3s.57-.22.85-.32l.64-.22c.22-.07.45-.15.68-.2s.47-.14.7-.2l.71-.19,1.31-.31c1.24-.29,2.5-.58,3.74-.9a.47.47,0,0,0,.17,0l1-.28c.15,0,.29-.07.43-.12.32-.09.64-.17,1-.27l1-.35c.43-.14.86-.3,1.28-.46l.47-.19a3.32,3.32,0,0,0,.47-.2,2.48,2.48,0,0,0,.37-.17,15.36,15.36,0,0,0,1.57-.79c.26-.14.52-.29.77-.45l.74-.49a3.18,3.18,0,0,0,.37-.27A34.56,34.56,0,0,1,743,471.1Zm29.73-15.83c-.31-.29-.61-.58-.9-.88-.46-.46-.91-.95-1.31-1.43-.23-.26-.45-.52-.66-.79l-.36-.46,0,0c-.17-.2-.32-.42-.47-.63a.61.61,0,0,1-.1-.14,2.43,2.43,0,0,0-.14-.2,22.82,22.82,0,0,1-1.24-1.94h-.09c.38.66.77,1.3,1.21,1.92.1.14.2.27.29.41a23,23,0,0,0,1.45,1.84c.15.19.31.37.48.56a8.09,8.09,0,0,0,.7.75,2.69,2.69,0,0,0,.29.3c.24.25.48.5.74.73l.43.4c.5.46,1,.9,1.55,1.33l.12-.05C774,456.42,773.32,455.85,772.7,455.27Zm-34.77,4.88s0,0-.06,0a14.46,14.46,0,0,1-7.92,2.3c1.14.09,2.28.18,3.43.23h0c3.19.17,6.39.23,9.58.14v-7.19A21.75,21.75,0,0,1,737.93,460.15Zm5,11-3.67.86a17.26,17.26,0,0,0-6.88,3l.62-.33a3.74,3.74,0,0,1,.45-.22c.22-.1.45-.21.68-.3s.57-.22.85-.32l.64-.22c.22-.07.45-.15.68-.2s.47-.14.7-.2l.71-.19,1.31-.31c1.24-.29,2.5-.58,3.74-.9a.47.47,0,0,0,.17,0l1-.28c.15,0,.29-.07.43-.12.32-.09.64-.17,1-.27l1-.35c.43-.14.86-.3,1.28-.46l.47-.19a3.32,3.32,0,0,0,.47-.2,2.48,2.48,0,0,0,.37-.17,15.36,15.36,0,0,0,1.57-.79c.26-.14.52-.29.77-.45l.74-.49a3.18,3.18,0,0,0,.37-.27A34.56,34.56,0,0,1,743,471.1Zm29.73-15.83c-.31-.29-.61-.58-.9-.88-.46-.46-.91-.95-1.31-1.43-.23-.26-.45-.52-.66-.79l-.36-.46,0,0c-.17-.2-.32-.42-.47-.63a.61.61,0,0,1-.1-.14,2.43,2.43,0,0,0-.14-.2,22.82,22.82,0,0,1-1.24-1.94h-.09c.38.66.77,1.3,1.21,1.92.1.14.2.27.29.41a23,23,0,0,0,1.45,1.84c.15.19.31.37.48.56a8.09,8.09,0,0,0,.7.75,2.69,2.69,0,0,0,.29.3c.24.25.48.5.74.73l.43.4c.5.46,1,.9,1.55,1.33l.12-.05C774,456.42,773.32,455.85,772.7,455.27Zm-34.77,4.88s0,0-.06,0a14.46,14.46,0,0,1-7.92,2.3c1.14.09,2.28.18,3.43.23h0c3.19.17,6.39.23,9.58.14v-7.19A21.75,21.75,0,0,1,737.93,460.15Zm5,11-3.67.86a17.26,17.26,0,0,0-6.88,3l.62-.33a3.74,3.74,0,0,1,.45-.22c.22-.1.45-.21.68-.3s.57-.22.85-.32l.64-.22c.22-.07.45-.15.68-.2s.47-.14.7-.2l.71-.19,1.31-.31c1.24-.29,2.5-.58,3.74-.9a.47.47,0,0,0,.17,0l1-.28c.15,0,.29-.07.43-.12.32-.09.64-.17,1-.27l1-.35c.43-.14.86-.3,1.28-.46l.47-.19a3.32,3.32,0,0,0,.47-.2,2.48,2.48,0,0,0,.37-.17,15.36,15.36,0,0,0,1.57-.79c.26-.14.52-.29.77-.45l.74-.49a3.18,3.18,0,0,0,.37-.27A34.56,34.56,0,0,1,743,471.1Zm29.73-15.83c-.31-.29-.61-.58-.9-.88-.46-.46-.91-.95-1.31-1.43-.23-.26-.45-.52-.66-.79l-.36-.46,0,0c-.17-.2-.32-.42-.47-.63a.61.61,0,0,1-.1-.14,2.43,2.43,0,0,0-.14-.2,22.82,22.82,0,0,1-1.24-1.94h-.09c.38.66.77,1.3,1.21,1.92.1.14.2.27.29.41a23,23,0,0,0,1.45,1.84c.15.19.31.37.48.56a8.09,8.09,0,0,0,.7.75,2.69,2.69,0,0,0,.29.3c.24.25.48.5.74.73l.43.4c.5.46,1,.9,1.55,1.33l.12-.05C774,456.42,773.32,455.85,772.7,455.27Z" transform="translate(-20.49 -15.96)" fill="url(#8f3458d1-231b-4e47-8e43-39db0a9112b7)"/><path d="M722.13,327.84c-6.19,12.64,2,27.7.34,41.67-.55,4.49-2.14,8.95-1.48,13.43,1.2,8.07,9,13.13,14.75,18.93A46,46,0,0,1,747,446.11c-2.69,9.31-10.6,18.71-20.19,17.32A116.93,116.93,0,0,0,759.76,462c9.74-1.82,20.06-5.49,25.28-13.92,5.89-9.52,3.41-21.72,1.77-32.8a178.41,178.41,0,0,1,1.76-62c.93-4.48,2-9,1.56-13.6s-3-9.22-7.2-10.92c-4.54-1.8-9.85.12-14.48-1.43-8.7-2.91-10.78-12.14-20.83-12.41C738.65,314.67,726.2,319.52,722.13,327.84Z" transform="translate(-20.49 -15.96)" fill="#444053"/><path d="M722.13,327.84c-6.19,12.64,2,27.7.34,41.67-.55,4.49-2.14,8.95-1.48,13.43,1.2,8.07,9,13.13,14.75,18.93A46,46,0,0,1,747,446.11c-2.69,9.31-10.6,18.71-20.19,17.32A116.93,116.93,0,0,0,759.76,462c9.74-1.82,20.06-5.49,25.28-13.92,5.89-9.52,3.41-21.72,1.77-32.8a178.41,178.41,0,0,1,1.76-62c.93-4.48,2-9,1.56-13.6s-3-9.22-7.2-10.92c-4.54-1.8-9.85.12-14.48-1.43-8.7-2.91-10.78-12.14-20.83-12.41C738.65,314.67,726.2,319.52,722.13,327.84Z" transform="translate(-20.49 -15.96)" opacity="0.05"/><path d="M702.78,443c1.09-4.64,1.88-9.4,3.87-13.72,1.71-3.73,4.29-7.05,5.72-10.89,1.83-4.93,1.66-10.35,2.36-15.56A49.38,49.38,0,0,1,732.13,372a57.44,57.44,0,0,1,33.21-12.83c5.18,3.51,7.19,10.31,7,16.56S770,388,768.69,394.09c-1,4.69-1.56,9.5-3.13,14a33.11,33.11,0,0,1-16.65,18.71c-2.59,1.25-5.36,2.18-7.66,3.9a21.6,21.6,0,0,0-5.32,6.42c-8.36,14.05-10.39,31.12-18.53,45.29a5.58,5.58,0,0,1-1.7,2.05,5.15,5.15,0,0,1-2.45.62c-6.16.4-21.84-3.49-21-11.83.47-4.68,4.13-10.27,5.76-14.71A137.91,137.91,0,0,0,702.78,443Z" transform="translate(-20.49 -15.96)" fill="#efb7b9"/><rect x="772.1" y="370.93" width="1.34" height="11.01" rx="0.62" ry="0.62" transform="matrix(0.95, 0.3, -0.3, 0.95, 130.52, -233.06)" fill="#3a3768"/><rect x="733.56" y="349.3" width="0.75" height="3.63" rx="0.35" ry="0.35" transform="translate(120.98 -222.45) rotate(17.7)" fill="#3a3768"/><rect x="731.11" y="355.56" width="0.84" height="6.31" rx="0.39" ry="0.39" transform="translate(123.18 -221.36) rotate(17.7)" fill="#3a3768"/><rect x="728.53" y="363.67" width="0.8" height="6.36" rx="0.37" ry="0.37" transform="translate(125.53 -220.18) rotate(17.7)" fill="#3a3768"/><rect x="723.31" y="342.63" width="44.7" height="90.84" rx="5.04" ry="5.04" transform="translate(132.76 -224.26) rotate(17.7)" fill="#3a3768"/><rect x="754.2" y="346.97" width="6.24" height="1.27" rx="0.59" ry="0.59" transform="translate(121.02 -229.72) rotate(17.7)" fill="#e6e8ec"/><circle cx="741.39" cy="333.1" r="0.72" fill="#e6e8ec"/><path d="M774,351.91l-4.88-1.56-.18.59a2.93,2.93,0,0,1-3.68,1.9l-15.54-5a2.93,2.93,0,0,1-1.89-3.68l.18-.58-4.57-1.46a3.54,3.54,0,0,0-4.46,2.3l-24,75.27a3.56,3.56,0,0,0,2.31,4.46l30.55,9.75a3.54,3.54,0,0,0,4.46-2.3l24-75.27A3.54,3.54,0,0,0,774,351.91Z" transform="translate(-20.49 -15.96)" fill="#6c63ff"/><rect x="761.23" y="662.76" width="55.68" height="47.6" fill="#6c63ff"/><rect x="863.15" y="682.67" width="44" height="47.45" fill="#6c63ff"/><path d="M662.19,814a8.43,8.43,0,0,1-2.31,4.28c-1.43,1.23-3.42,1.53-5.3,1.69s-3.57.24-5.35.31c-5.33.2-10.67.34-15.64,2.2a76.38,76.38,0,0,0-7.35,3.55,64.54,64.54,0,0,1-34.88,6.55c-1.59-11.65-7.94-22.08-11-33.43-1.33-4.92-2-10.29-.11-15a3.43,3.43,0,0,1,1-1.52,3.51,3.51,0,0,1,2.2-.46c4.56.13,8.9,1.87,13.31,3,11.41,3,23.36,2.18,34.87.29,1.53-.26,3.53-.85,5.63-1.41,3.52-.93,7.32-1.74,9.71-.64,1.75.82,3.44,3.33,5,4.58a53,53,0,0,0,6.48,4.54,9.35,9.35,0,0,1,2.6,1.91,7.86,7.86,0,0,1,1.38,3.12A31.68,31.68,0,0,1,662.19,814Z" transform="translate(-20.49 -15.96)" fill="#efb7b9"/><path d="M634,782.93a3.15,3.15,0,0,1-.62,1.89,2.88,2.88,0,0,1-.26.35c-2.54,3.51-7.34,4.54-11.67,5.28l-15.57,2.67h0a4,4,0,0,0-2,.74,3.87,3.87,0,0,0-1,2.16s0,.06,0,.09q-1.26,5.76-2.55,11.53h0c-.53,2.43-1.06,4.85-1.6,7.28-1,4.49-2.5,9.63-6.74,11.4a8.26,8.26,0,0,1-1.76.51,20.64,20.64,0,0,1-5,0l-37.61-3.07q-10.59-5.52-21-11.53-8.6-4.95-17-10.27c-2.5-1.58-5-3.18-7.49-4.81-.21-.12-.4-.25-.61-.39-.84-.55-1.69-1.1-2.53-1.67l-.71-.47q-9.68-6.42-19.1-13.3A59,59,0,0,1,485,775c.5-.47,1-1,1.51-1.43s.77-.69,1.17-1a18,18,0,0,1,3.85-2.58,24.06,24.06,0,0,1,6-1.71A127.57,127.57,0,0,1,536.27,767l.24,0c.59.06,1.17.14,1.76.22h-4.39c1.36.3,2.71.59,4.07.87.88.2,1.76.37,2.65.54q12.67,2.5,25.55,3.75c4.73.47,9.48.8,14.22,1,5.49.24,11,.3,16.5.67a153.71,153.71,0,0,1,16.15,2l.26,0,1.56.28c2.3.43,4.58.91,6.86,1.45,3,.71,6.09,1.53,9.09,2.43C632.21,780.7,633.87,781.45,634,782.93Z" transform="translate(-20.49 -15.96)" fill="#444053"/><path d="M634,782.93a3.15,3.15,0,0,1-.62,1.89,2.88,2.88,0,0,1-.26.35c-2.54,3.51-7.34,4.54-11.67,5.28l-15.57,2.67h0a4,4,0,0,0-2,.74,3.87,3.87,0,0,0-1,2.16s0,.06,0,.09q-1.26,5.76-2.55,11.53h0c-.53,2.43-1.06,4.85-1.6,7.28-1,4.49-2.5,9.63-6.74,11.4a8.26,8.26,0,0,1-1.76.51,20.64,20.64,0,0,1-5,0l-37.61-3.07q-10.59-5.52-21-11.53-8.6-4.95-17-10.27c-2.5-1.58-5-3.18-7.49-4.81-.21-.12-.4-.25-.61-.39-.84-.55-1.69-1.1-2.53-1.67l-.71-.47q-9.68-6.42-19.1-13.3A59,59,0,0,1,485,775c.5-.47,1-1,1.51-1.43s.77-.69,1.17-1a18,18,0,0,1,3.85-2.58,24.06,24.06,0,0,1,6-1.71A127.57,127.57,0,0,1,536.27,767l.24,0c.59.06,1.17.14,1.76.22h-4.39c1.36.3,2.71.59,4.07.87.88.2,1.76.37,2.65.54q12.67,2.5,25.55,3.75c4.73.47,9.48.8,14.22,1,5.49.24,11,.3,16.5.67a153.71,153.71,0,0,1,16.15,2l.26,0,1.56.28c2.3.43,4.58.91,6.86,1.45,3,.71,6.09,1.53,9.09,2.43C632.21,780.7,633.87,781.45,634,782.93Z" transform="translate(-20.49 -15.96)" opacity="0.05"/><path d="M623.74,754.53A34.41,34.41,0,0,1,621.83,766c-1.83,4.64-5.29,8.37-8.52,12.19l-.87,1c-3.45,4.2-6.62,9.11-6.56,14.54,0,4,1.87,8,1,11.93a80.3,80.3,0,0,1-50.81.5c-3.42-1.11-7.07-2.74-8.6-6a35.93,35.93,0,0,0,14.33-15.36,61.94,61.94,0,0,0,5.83-20.39c.19-1.58.36-3.17.54-4.76h0c.25-2.13.53-4.25,1-6.34,2.73-12.56,9.22-25,22.63-28.31a16.36,16.36,0,0,1,5.11-.58c3.82.23,7.28,2.25,10.57,4.22,6.06,3.64,12.48,7.77,15,14.36C623.83,746.65,623.88,750.65,623.74,754.53Z" transform="translate(-20.49 -15.96)" fill="#efb7b9"/><path d="M939,523.66a12,12,0,0,1-2.52,3.35c-12.92,13.53-26.66,27.37-44.34,33.49-9.29,3.21-19.19,4.11-29,5-14.13,1.27-28.72,2.48-42.16-2-19.32-6.45-33.05-23.58-43.19-41.24-8.26-14.39-15.08-31-11.72-47.22a23.38,23.38,0,0,1,4.5-10.27,20.49,20.49,0,0,1,5.68-4.64c5.88-3.43,13.17-5.07,18.45-9.51a60,60,0,0,0-6.16-18.25c-.61-1.19-1.27-2.35-2-3.49a62.71,62.71,0,0,0-7-9.33c-.38-.41-.78-.81-1.21-1.21-2.36-2.18-5.33-4.18-7-6.64,4.88-4.26,12.23-7.1,17.91-10.31L804.06,393l3.51-2c5.32-3,10.74-6.05,16.68-7.48,1.79-.43,3.83-.67,5.32.41a6.44,6.44,0,0,1,2,3.23,104.45,104.45,0,0,1,3.07,12.31c1.55,6.92,3.46,13.53,9,17.52,3.75,2.7,8.47,3.54,12.79,5.18a62.86,62.86,0,0,1,9.78,5c1.75,1,3.47,2.1,5.23,3.1,17.75,10.25,38.89,16.29,51.84,32.18,12.37,15.17,14.48,36,16.09,55.51A12.11,12.11,0,0,1,939,523.66Z" transform="translate(-20.49 -15.96)" fill="#efb7b9"/><path d="M848.77,363.35A58.09,58.09,0,0,1,796,421.18c-1.76.17-3.54.25-5.35.25a58.08,58.08,0,1,1,58.08-58.08Z" transform="translate(-20.49 -15.96)" opacity="0.1"/><path d="M848.77,361.55A58.09,58.09,0,0,1,796,419.39c-1.76.16-3.54.24-5.35.24a58.07,58.07,0,1,1,58.08-58.08Z" transform="translate(-20.49 -15.96)" fill="#efb7b9"/><path d="M794.64,549.85a31.61,31.61,0,0,0,20.7-25q1,10.49,2.71,20.89a37.61,37.61,0,0,0,2.62,9.85,20.25,20.25,0,0,0,18.8,11.37Z" transform="translate(-20.49 -15.96)" opacity="0.1"/><path d="M824.2,542.39a192.3,192.3,0,0,1-33-39.16,66.51,66.51,0,0,1-5-9.05c-4-9.19-4.39-19.49-6.56-29.29a7.32,7.32,0,0,0-1.1-2.88c-1.52-2-4.58-2-6.94-1.13s-4.47,2.42-6.93,2.94-5,0-7.33.79c-2,.68-3.49,2.2-5.2,3.38-4.18,2.92-9.39,3.81-14.35,5-3.77.92-8.07,2.61-9.07,6.37-.6,2.23.18,4.57.8,6.79,3.45,12.37,2.07,25.48,1.42,38.3s-.35,26.33,6,37.52c1.72,3.06,3.85,5.87,5.49,9a56.06,56.06,0,0,1,3.81,10,224.34,224.34,0,0,1,9.41,58.2c.07,2.61-.65,6.1-3.25,6.25.73,6.08,5.72,10.44,10.66,14.07s10.44,6.79,13.89,11.85c2.94,4.33,4.09,9.63,6.7,14.16,5,8.66,14.82,13.52,24.62,15.48s19.9,1.52,29.87,2.24c17.74,1.29,35,6.29,51.75,12.27,13.12,4.69,26.19,10.09,37.27,18.53,17,13,28.09,32.13,38.69,50.74a76.41,76.41,0,0,0,13.12-17.81c4.13-7.74,6.42-18.46,0-24.39-4.83-4.44-13.39-4.84-15.9-10.9-.91-2.21-.74-4.7-.55-7.09l2.32-29.31a30.89,30.89,0,0,0-.1-8.32c-.72-3.69-2.76-7-4.59-10.27a104.46,104.46,0,0,1-11.86-65.4c1.87-2,3-3.89,4.87-5.91,3.19-3.43,6.61-7.52,6.06-12.17-.68-5.68-6.93-9.13-8.69-14.58a15.5,15.5,0,0,1-.14-7.54c1.14-6.17,3.94-12.51,2-18.46-.56-1.69-1.47-3.23-2.1-4.89-3.52-9.29,2.57-19.42,2.33-29.35-.05-2-.44-4.07-1.92-5.33a8.18,8.18,0,0,0-3.79-1.46l-4.45-.9a5.17,5.17,0,0,0-2-.14,4.14,4.14,0,0,0-2,1.2c-4.58,4.54-4.37,13.38-10.33,15.86-3.13,1.3-6.66.16-10-.56-10.58-2.29-21.65,0-31.88,3.51s-20,8.29-30.46,11.25S832.23,549.67,824.2,542.39Z" transform="translate(-20.49 -15.96)" fill="#6c63ff"/><path d="M714,579.32c-9.12,2.74-18.52,5.52-28,4.68-8.39-.75-16.32-4.33-23.37-8.94-3.17-2.09-6.3-4.5-8.1-7.85-2-3.67-2.12-8-2.22-12.2-.08-3.21-.13-6.55,1.12-9.51,1.5-3.55,4.73-6.25,5.79-10,1.67-5.86-2.56-12.56.17-18,1.86-3.71,6.4-5.49,8.24-9.21,3.27-6.64-3.67-15.47.45-21.61,1.79-2.66,5.07-3.77,8-5.09a21.49,21.49,0,0,0,8-5.78,11.58,11.58,0,0,0,2.66-9.3A179.43,179.43,0,0,1,724,472.5a6.21,6.21,0,0,1,3.66,2c1.26,1.74.48,4.16.82,6.28a9.83,9.83,0,0,0,3.4,5.32c3.61,3.36,8,5.84,11.17,9.67,4.12,5.06,5.38,11.81,6.5,18.24l2.74,15.62a139.77,139.77,0,0,1,2.12,15.5,30.77,30.77,0,0,1-.31,7.79,81.49,81.49,0,0,1-3.64,12.9c-1.39,3.62-4.1,3.76-7.71,4.85Z" transform="translate(-20.49 -15.96)" fill="#6c63ff"/><path d="M725.67,543.62c.42,6.5.81,13.27-1.62,19.32a22.14,22.14,0,0,1-11.13,11.72c7.76-6.93,9.56-18.18,10.89-28.5a35.64,35.64,0,0,0,.42-8.31c-.12-1.08-4.58-15,0-12.79C726,525.89,725.52,541.29,725.67,543.62Z" transform="translate(-20.49 -15.96)" opacity="0.1"/><path d="M623.74,754.53A34.41,34.41,0,0,1,621.83,766c-1.83,4.64-5.29,8.37-8.52,12.19A69.25,69.25,0,0,0,610,763.09c-2.6-7.08-7.25-13.73-14-17.15s-15.7-3-21.09,2.32c-3.06,3-4.69,7.11-6.53,11-.07.14-.14.29-.23.44.25-2.13.53-4.25,1-6.34,2.73-12.56,9.22-25,22.63-28.31a16.36,16.36,0,0,1,5.11-.58c3.82.23,7.28,2.25,10.57,4.22,6.06,3.64,12.48,7.77,15,14.36C623.83,746.65,623.88,750.65,623.74,754.53Z" transform="translate(-20.49 -15.96)" opacity="0.1"/><path d="M881.54,815.63c-4.71,3.08-10.62,3.45-16.22,3.72l-7.2.36c-4.84.26-9.68.49-14.52.73-12,.6-24.36,1.17-35.9-2.3-7.17-2.16-13.79-5.81-20.27-9.59l-2.73-1.61c-4.17-2.48-8.31-5.06-12.36-7.75A163.6,163.6,0,0,1,750,781.68c-10-9.5-18.25-20.36-25.69-31.88-15.83-24.51-28-52-45.24-75.73a41.11,41.11,0,0,1-9,29.49c-5.63,6.88-13.33,11.7-19.91,17.67a74.31,74.31,0,0,0-17,22.63c-1,1.94-1.83,4-1.6,6.2.4,3.91,4.3,6.87,4.42,10.81.1,3-2.08,5.61-4.21,7.77a119,119,0,0,1-17.74,14.87c-.76-7.51-1.55-15.12-4.15-22.21s-7.25-13.73-14-17.16-15.7-3-21.09,2.32c-3.06,3-4.69,7.11-6.53,11-.67,1.4-2,3-3.41,2.35a2.77,2.77,0,0,1-1.14-1.37c-4.37-8.9.36-19.39,5-28.13,2.52-4.72,5-9.42,7.54-14.14a48,48,0,0,1,3.8-6.31,16.55,16.55,0,0,0,2.64-4c.64-1.73.47-3.64.73-5.48a23.43,23.43,0,0,1,2.69-7.2c13.06-25.93,26.19-52,43.22-75.51a124.37,124.37,0,0,0,8.7-12.85c4.31-7.79,6.78-17,13.56-22.76,8.74-7.44,21.89-6.69,32.72-2.9,17.13,6,27.57,22.31,40.85,34.69,16.08,15,32.23,30.07,45.65,47.48,11,14.23,20.36,30.27,33.62,42.08a71.48,71.48,0,0,0,8.3,6.43c25.79,17,48.11,36.8,65.78,62.17a79.47,79.47,0,0,1,8.49,14.5,36.84,36.84,0,0,1,2.21,7.35C890.78,801.89,888.38,811.16,881.54,815.63Z" transform="translate(-20.49 -15.96)" fill="#444053"/><path d="M881.54,815.63c-4.71,3.08-10.62,3.45-16.22,3.72l-7.2.36c-4.84.26-9.68.49-14.52.73-12,.6-24.36,1.17-35.9-2.3-7.17-2.16-13.79-5.81-20.27-9.59l-2.73-1.61c-4.17-2.48-8.31-5.06-12.36-7.75.85-17.72,27.42-32,60-32,24.33,0,45.28,7.9,54.73,19.26a36.84,36.84,0,0,1,2.21,7.35C890.78,801.89,888.38,811.16,881.54,815.63Z" transform="translate(-20.49 -15.96)" opacity="0.05"/><path d="M864.93,595.36c-1.87,4.18-5,7.86-5.89,12.36s2.1,10.26,6.65,9.75a1.53,1.53,0,0,1,1,.09,1.21,1.21,0,0,1,.41.84c1,5.92-5,10.79-5.84,16.74-.43,3,.53,6.06.74,9.11.53,7.51-3.46,14.58-8,20.57-15,19.74-37.16,32.77-59.38,43.82,25.63,15.65,55.8,21.68,85.27,27.45a8,8,0,0,0,4.72,0c2.17-.95,3-3.6,3-6s-.63-4.72-.39-7.07c.49-4.69,4.29-8.33,8.28-10.86s8.45-4.43,11.72-7.83c3.53-3.67,5.28-8.66,6.93-13.48,3.73-10.91,7.53-22,13.95-31.53,3.53-5.27,7.88-10.14,10.05-16.1s2-12.52,1.2-18.82c-.64-5.23-1.71-10.55-4.51-15-2.28-3.63-5.62-6.54-7.61-10.33-5.11-9.75-.11-22.62-5.56-32.18-3.22-5.65-9.41-8.85-15.38-11.45-5.66-2.46-11.53-4.68-17.68-5.26-5.6-.53-10.39.89-15.58,2.76-4.57,1.65-5.06,4.38-5.61,9.25C866.21,573.15,869.62,584.91,864.93,595.36Z" transform="translate(-20.49 -15.96)" opacity="0.1"/><path d="M869.42,598.05c-1.87,4.18-5,7.87-5.89,12.37s2.1,10.26,6.65,9.75a1.53,1.53,0,0,1,1,.09,1.21,1.21,0,0,1,.41.83c1,5.92-5,10.79-5.84,16.74-.43,3,.53,6.06.74,9.11.53,7.51-3.46,14.59-8,20.57-15,19.75-37.16,32.77-59.38,43.83C824.76,727,854.93,733,884.4,738.78a7.91,7.91,0,0,0,4.72,0c2.17-1,3-3.6,3-6s-.63-4.71-.39-7.06c.49-4.69,4.3-8.34,8.28-10.86s8.45-4.44,11.72-7.83c3.54-3.67,5.28-8.66,6.93-13.49,3.73-10.9,7.53-21.95,13.95-31.52,3.53-5.28,7.88-10.14,10.05-16.11s2-12.51,1.2-18.81c-.64-5.23-1.71-10.55-4.51-15-2.28-3.62-5.62-6.53-7.61-10.33-5.11-9.74-16.94,16.48-22.38,6.92-3.23-5.66,7.41-47.95,1.44-50.55-5.66-2.46-11.53-4.68-17.67-5.26-5.61-.52-10.4.9-15.59,2.77-4.57,1.64-5.06,4.38-5.61,9.24C870.7,575.84,874.11,587.6,869.42,598.05Z" transform="translate(-20.49 -15.96)" opacity="0.1"/><path d="M866.73,595.36c-1.88,4.18-5,7.86-5.89,12.36s2.09,10.26,6.65,9.75a1.5,1.5,0,0,1,1,.09,1.22,1.22,0,0,1,.42.84c1,5.92-5,10.79-5.84,16.74-.43,3,.52,6.06.74,9.11.52,7.51-3.46,14.58-8,20.57-15.05,19.74-37.16,32.77-59.39,43.82,25.63,15.65,55.81,21.68,85.28,27.45a8,8,0,0,0,4.72,0c2.16-.95,3-3.6,3-6s-.63-4.72-.38-7.07c.48-4.69,4.29-8.33,8.27-10.86s8.45-4.43,11.72-7.83c3.54-3.67,5.29-8.66,6.94-13.48,3.72-10.91,7.52-22,13.94-31.53,3.54-5.27,7.88-10.14,10.06-16.1s2-12.52,1.2-18.82c-.64-5.23-1.71-10.55-4.52-15-2.28-3.63-5.62-6.54-7.6-10.33-5.11-9.75-.12-22.62-5.56-32.18-3.23-5.65-9.42-8.85-15.38-11.45-5.67-2.46-11.53-4.68-17.68-5.26-5.61-.53-10.39.89-15.59,2.76-4.56,1.65-5,4.38-5.61,9.25C868,573.15,871.42,584.91,866.73,595.36Z" transform="translate(-20.49 -15.96)" fill="#6c63ff"/><path d="M621.29,828.28a14.52,14.52,0,0,0-2.31-5c-2.2-3.33-5.31-6.4-6.78-10.14-1.35-3.45-1.23-7.31-2.38-10.84a10.32,10.32,0,0,0-3.56-5,5.7,5.7,0,0,0-3.41-1.21,5,5,0,0,0-1.08.12c-2.5.57-4.12,2.87-6,4.61a15.23,15.23,0,0,1-6.56,3.54,60.25,60.25,0,0,1-7.85-1.79h0a61.38,61.38,0,0,1-20.42-10.66c-.76-.6-1.55-1.24-2.38-1.77a6.09,6.09,0,0,0-4.48-1.21,8.43,8.43,0,0,0-3.58,2.07c-2.89,2.36-5.77,4.74-8.64,7.1a137.65,137.65,0,0,0-11.36,10.06c-1.34,1.35-2.61,2.77-3.91,4.17q10.38,6,21,11.53l3.87,2c4.8,2.45,9.61,4.81,14.47,7.1q15.81,7.5,32,13.9c4.5-.64,9-1.39,13.5-2.14a12.65,12.65,0,0,0,4.17-1.23c2.51-1.44,3.68-4.38,4.63-7.12a18,18,0,0,0,1.3-6.29A9.86,9.86,0,0,0,621.29,828.28Zm-33.07-23.76a15.25,15.25,0,0,1-5.22.08Z" transform="translate(-20.49 -15.96)" fill="#444053"/><path d="M881.54,815.63c-4.71,3.08-10.62,3.45-16.22,3.72l-7.2.36c-9.19-4.38-17-11.2-21.2-20.39-2.32-5.11-4-11.32-9-13.75a4.46,4.46,0,0,0-2-.52c-1.5,0-2.74,1.15-3.84,2.17-10.44,9.65-23.7,15.83-37.38,19.72-12.32-7.33-24.29-15.38-34.68-25.26-10-9.5-18.25-20.36-25.69-31.88,4.93-2.42,9.36-4.66,14.58-6.76,17.37-7,32.69-18.18,47.19-30,3.61-3,7.53-6.1,12.19-6.34a13.45,13.45,0,0,0,2.84-.22,5.78,5.78,0,0,0,3.42-3.06,71.48,71.48,0,0,0,8.3,6.43c25.79,17,48.11,36.8,65.78,62.17,4.67,6.71,9.24,13.8,10.7,21.85S888.38,811.16,881.54,815.63Z" transform="translate(-20.49 -15.96)" opacity="0.1"/><path d="M662.19,814a8.43,8.43,0,0,1-2.31,4.28c-1.43,1.23-3.42,1.53-5.3,1.69s-3.57.24-5.35.31a19.77,19.77,0,0,1-2.11-2c-2.25-2.49-3.34-5.79-4.38-9-2.36-7.29-4.74-14.66-5.38-22.31a28.78,28.78,0,0,1-.1-2.95c3.52-.93,7.32-1.74,9.71-.64,1.75.82,3.44,3.33,5,4.58a53,53,0,0,0,6.48,4.54,9.35,9.35,0,0,1,2.6,1.91,7.86,7.86,0,0,1,1.38,3.12A31.68,31.68,0,0,1,662.19,814Z" transform="translate(-20.49 -15.96)" opacity="0.1"/><path d="M966.44,776.76l-15,27.6c-2.18,4-4.44,8.13-7.92,11.1-4.7,4-11,5.41-17.06,6.68-16,3.38-32.33,6.76-48.52,4.65S845.48,816,838.72,801.11c-2.33-5.11-4-11.32-9-13.75a4.66,4.66,0,0,0-2-.51c-1.51,0-2.74,1.15-3.85,2.17-10.51,9.71-23.86,15.91-37.63,19.79s-28,5.58-42.25,7.26c-11.83,1.4-24,1.38-35.93,1.68-2.69.06-6,.57-6.87,3.12a21.31,21.31,0,0,1-.59,2.54c-1,2.13-4,1.87-6.34,2.37-3,.67-5.31,3.1-8,4.64-6.86,3.94-15.47,1.79-23.06-.46a13.09,13.09,0,0,1-4.2-1.8c-1.8-1.35-2.77-3.51-4.23-5.21s-3.45-3-5-4.63c-2.25-2.49-3.34-5.79-4.37-9-2.37-7.29-4.75-14.67-5.39-22.31-.34-4.14,0-8.8,3.06-11.64,2.39-2.25,5.88-2.82,9.16-3.07a8.52,8.52,0,0,0,3.17-.62c2.79-1.34,3.14-5.12,4.89-7.68,2.78-4.07,9.79-4,12.54,0,.48.71.84,1.52,1.38,2.19,2.66,3.33,7.89,2.23,11.9.81l11.92-4.2c8.9-3.13,17.81-6.28,26.29-10.4,5.66-2.76,10.51-5.28,16.35-7.63,17.37-7,32.69-18.17,47.18-30,3.61-3,7.54-6.1,12.2-6.34a14.14,14.14,0,0,0,2.84-.22c4.24-1.15,4.27-7.66,7.94-10.08,4.31-2.85,10.21,1.71,15.14.15,17.22-5.45,38.12-4.87,51.16,7.63,5.68,5.44,10,12.78,17.22,15.87,5.12,2.19,10.93,1.86,16.47,1.28a41.76,41.76,0,0,1,9.47-.35c8.5,1.06,15.17,7.63,20.64,14.21A175.37,175.37,0,0,1,966.44,776.76Z" transform="translate(-20.49 -15.96)" fill="#444053"/><path d="M621.51,830a18,18,0,0,1-1.3,6.29c-1,2.74-2.12,5.68-4.63,7.12a12.65,12.65,0,0,1-4.17,1.23c-4.49.75-9,1.5-13.5,2.14q-16.2-6.4-32-13.9c3-.57,6-1.13,9-1.53,5.29-.72,10.64-1,15.94-1.63a77,77,0,0,0,7.83-1.31c6.74-1.56,13.2-4.38,20.08-5.15l.21,0a14.52,14.52,0,0,1,2.31,5A9.86,9.86,0,0,1,621.51,830Z" transform="translate(-20.49 -15.96)" opacity="0.1"/><path d="M881.57,526.92a6.42,6.42,0,0,1-.12,3,2.22,2.22,0,0,1-2.28,1.58c1.34.24.88-9.63.7-10.6C881.08,522.48,881.34,524.89,881.57,526.92Z" transform="translate(-20.49 -15.96)" opacity="0.1"/><path d="M866.26,427.18a52.76,52.76,0,0,0-9.19,9.58c-8.3,11.49-11.43,28.1-24.38,33.87-7.21,3.21-15.53,2-23.32.65-11.43-1.93-24-4.7-33.14-11.18a29.73,29.73,0,0,1-9.82-11.39c4.91.51,9.44-2.62,13.05-6a69.73,69.73,0,0,0,9.06-10.38A81.82,81.82,0,0,0,796,419.39,103.19,103.19,0,0,0,804,393.63c0-.2.07-.41.1-.62,3.06-18.15,2.06-36.72.45-55.06C793,363.21,756.14,361,734.81,345.7a58.08,58.08,0,1,1,99.84,53.81c1.55,6.92,3.46,13.53,9,17.52,3.75,2.7,8.47,3.54,12.79,5.18A62.86,62.86,0,0,1,866.26,427.18Z" transform="translate(-20.49 -15.96)" opacity="0.1"/><path d="M804.51,336.16c1.63,18.54,2.63,37.33-.55,55.67s-10.9,36.38-24.5,49.09c-3.61,3.37-8.13,6.51-13.05,6,7.28,15.2,26.35,19.77,43,22.57,7.79,1.32,16.11,2.57,23.33-.65,12.93-5.77,16.07-22.38,24.36-33.86,11.13-15.41,32-21.62,42.65-37.34,4.55-6.69,6.9-14.65,8.29-22.62,4.19-24-.82-51-18.76-67.53-7.8-7.18-17.49-11.94-26-18.23-6.21-4.56-11.8-9.93-18.08-14.38a78.85,78.85,0,0,0-64.56-11.79c-2.35.61-4.81,1.42-6.4,3.27s-1.93,4-2.53,6.17a43.08,43.08,0,0,1-27,28.67c-8.9,3.06-20.23,4.25-24.07,12.84-2.13,4.78-1,10.44,1.28,15.16C734.77,356.13,789.9,368.12,804.51,336.16Z" transform="translate(-20.49 -15.96)" fill="#444053"/><path d="M790.24,599.68a31.58,31.58,0,0,0,20.7-25q1,10.5,2.72,20.9a37,37,0,0,0,2.62,9.85,20.24,20.24,0,0,0,18.8,11.36Z" transform="translate(-20.49 -15.96)" opacity="0.1"/><path d="M804.23,698.62c-12.64-11.53-22.52-25.69-33.77-38.46-5.9-6.7-7.36-13.15-14-19.3-.56,1.44-6.48,2.66-8.17,2.74.88,6.32,6.82,10.86,12.69,14.63s12.42,7.07,16.53,12.33c3.5,4.49,4.87,10,8,14.72C789.62,691.52,796.51,695.86,804.23,698.62Z" transform="translate(-20.49 -15.96)" fill="#6c63ff"/><path d="M968,777.58A178.46,178.46,0,0,0,941.84,737c-5.62-6.72-12.48-13.42-21.21-14.49a42.8,42.8,0,0,0-9.72.35l-1.81.18A103.23,103.23,0,0,1,927.56,734c16.48,12.47,27.5,30.49,37.82,48.4Z" transform="translate(-20.49 -15.96)" fill="#6c63ff"/><g opacity="0.1"><path d="M778,263.73a9.29,9.29,0,0,0-3.8,2.47c-1.45,1.71-1.93,4-2.53,6.17a40.76,40.76,0,0,1-3,7.67A42.48,42.48,0,0,0,778,263.73Z" transform="translate(-20.49 -15.96)"/><path d="M804.51,336c1.63,18.54,2.63,37.33-.55,55.67a98.35,98.35,0,0,1-11.69,32.94c9.77-12,15.62-27.07,18.28-42.4,3.18-18.33,2.17-37.13.55-55.67-14.61,32-69.74,20-82.65-7-1.78-3.7-2.86-8-2.22-12a14.25,14.25,0,0,0-5.65,6.26c-2.13,4.78-1,10.44,1.28,15.16C734.77,356,789.9,368,804.51,336Z" transform="translate(-20.49 -15.96)"/><path d="M839.28,459.23c-7.21,3.21-15.53,2-23.32.64-14.29-2.41-30.37-6.13-39.23-16.78-3.06,2.34-6.57,4.06-10.32,3.67,7.28,15.2,26.35,19.77,43,22.57,7.79,1.32,16.11,2.57,23.33-.65,6.42-2.86,10.43-8.41,13.85-14.67A22.82,22.82,0,0,1,839.28,459.23Z" transform="translate(-20.49 -15.96)"/><path d="M863.65,425.36a57.19,57.19,0,0,0-3.64,5.83c11.56-12.86,29.9-19.29,39.7-33.71a39.22,39.22,0,0,0,2.67-4.55C891.1,405.23,873.54,411.67,863.65,425.36Z" transform="translate(-20.49 -15.96)"/></g></svg>