<?xml version="1.0"?>
<svg xmlns="http://www.w3.org/2000/svg" xmlns:xlink="http://www.w3.org/1999/xlink" xmlns:svgjs="http://svgjs.com/svgjs" version="1.1" width="512" height="512" x="0" y="0" viewBox="0 0 512 512" style="enable-background:new 0 0 512 512" xml:space="preserve"><g><g xmlns="http://www.w3.org/2000/svg"><path d="m399.5 401.812h-347c-4.142 0-7.5 3.358-7.5 7.5s3.358 7.5 7.5 7.5h347c4.142 0 7.5-3.358 7.5-7.5s-3.358-7.5-7.5-7.5zm0-30h-347c-4.142 0-7.5 3.358-7.5 7.5s3.358 7.5 7.5 7.5h347c4.142 0 7.5-3.358 7.5-7.5s-3.358-7.5-7.5-7.5zm45-97.748c-4.142 0-7.5 3.358-7.5 7.5v142.748c0 12.407-10.093 22.5-22.5 22.5h-377c-12.407 0-22.5-10.093-22.5-22.5v-239.624c0-12.407 10.093-22.5 22.5-22.5h234.345c4.142 0 7.5-3.358 7.5-7.5s-3.358-7.5-7.5-7.5h-234.345c-20.678 0-37.5 16.822-37.5 37.5v239.624c0 20.678 16.822 37.5 37.5 37.5h377c20.678 0 37.5-16.822 37.5-37.5v-142.748c0-4.142-3.358-7.5-7.5-7.5zm-41.327-223.876c-60.008 0-108.828 48.82-108.828 108.827 0 11.564 1.82 22.709 5.176 33.173h-52.021c-4.142 0-7.5 3.358-7.5 7.5s3.358 7.5 7.5 7.5h58.107c2.604 5.252 5.615 10.268 9 15h-67.107c-4.142 0-7.5 3.358-7.5 7.5s3.358 7.5 7.5 7.5h80.042c19.596 18.964 46.272 30.655 75.63 30.655 60.007 0 108.827-48.82 108.827-108.828.001-60.007-48.819-108.827-108.826-108.827zm0 202.655c-51.737 0-93.828-42.091-93.828-93.828 0-51.736 42.091-93.827 93.828-93.827 51.736 0 93.827 42.091 93.827 93.827 0 51.737-42.091 93.828-93.827 93.828zm-330.858 102.552c2.286.638 5.78 1.313 10.185 1.417h89.625c19.077.373 37.894-16.669 37.5-37.5v-89.624c0-20.678-16.822-37.5-37.5-37.5h-89.625c-20.678 0-37.5 16.822-37.5 37.5v89.624c0 17.147 11.573 31.633 27.315 36.083zm11.082-13.583c5.965-18.775 23.673-32.171 43.915-32.171 20.243 0 37.951 13.396 43.915 32.171zm15.188-75.897c0-15.84 12.887-28.727 28.727-28.727s28.727 12.887 28.727 28.727-12.887 28.727-28.727 28.727-28.727-12.888-28.727-28.727zm-38.585-36.227c0-12.407 10.093-22.5 22.5-22.5h89.625c12.407 0 22.5 10.093 22.5 22.5v89.624c0 7.381-3.573 13.942-9.079 18.048-5.129-16.206-16.845-29.396-31.804-36.64 10.501-7.994 17.297-20.619 17.297-34.805 0-24.111-19.616-43.727-43.727-43.727s-43.727 19.616-43.727 43.727c0 14.186 6.795 26.811 17.297 34.805-14.958 7.244-26.674 20.434-31.803 36.64-5.506-4.106-9.079-10.667-9.079-18.048zm380.6-97.001-52.03 52.03c-.728.727-1.909.727-2.637 0l-20.188-20.188c-2.929-2.929-7.678-2.929-10.606 0-2.929 2.929-2.929 7.678 0 10.606l20.188 20.188c3.288 3.288 7.606 4.932 11.925 4.932s8.637-1.644 11.925-4.932l52.03-52.03c2.929-2.929 2.929-7.678 0-10.606-2.93-2.929-7.679-2.929-10.607 0zm-41.1 179.125h-152c-4.142 0-7.5 3.358-7.5 7.5s3.358 7.5 7.5 7.5h152c4.142 0 7.5-3.358 7.5-7.5s-3.358-7.5-7.5-7.5zm0 30h-152c-4.142 0-7.5 3.358-7.5 7.5s3.358 7.5 7.5 7.5h152c4.142 0 7.5-3.358 7.5-7.5s-3.358-7.5-7.5-7.5z" fill="#ffffff" data-original="#000000" style=""/></g></g></svg>
